G04 (created by PCBNEW (2013-07-07 BZR 4022)-stable) date 2014.08.18 14:47:36*
%MOIN*%
G04 Gerber Fmt 3.4, Leading zero omitted, Abs format*
%FSLAX34Y34*%
G01*
G70*
G90*
G04 APERTURE LIST*
%ADD10C,0.00590551*%
%ADD11R,0.0708661X0.0708661*%
%ADD12C,0.0708661*%
%ADD13C,0.07*%
%ADD14R,0.07X0.07*%
%ADD15C,0.066*%
%ADD16R,0.055X0.055*%
%ADD17C,0.055*%
%ADD18C,0.0984252*%
%ADD19C,0.0472441*%
%ADD20C,0.0590551*%
%ADD21C,0.015748*%
%ADD22C,0.0787402*%
%ADD23C,0.0708583*%
%ADD24C,0.019685*%
G04 APERTURE END LIST*
G54D10*
G54D11*
X39000Y-23000D03*
G54D12*
X39000Y-22000D03*
X39000Y-21000D03*
G54D11*
X39000Y-37500D03*
G54D12*
X39000Y-36500D03*
X39000Y-35500D03*
G54D11*
X39000Y-52000D03*
G54D12*
X39000Y-51000D03*
X39000Y-50000D03*
G54D11*
X39000Y-59250D03*
G54D12*
X39000Y-58250D03*
X39000Y-57250D03*
G54D11*
X38980Y-15755D03*
G54D12*
X38980Y-14755D03*
X38980Y-13755D03*
G54D11*
X39000Y-44750D03*
G54D12*
X39000Y-43750D03*
X39000Y-42750D03*
G54D11*
X39000Y-66500D03*
G54D12*
X39000Y-65500D03*
X39000Y-64500D03*
G54D11*
X39000Y-30250D03*
G54D12*
X39000Y-29250D03*
X39000Y-28250D03*
G54D13*
X24250Y-54000D03*
G54D14*
X24250Y-53000D03*
G54D13*
X24250Y-52000D03*
G54D15*
X33750Y-48000D03*
X33750Y-49000D03*
X33750Y-55250D03*
X33750Y-56250D03*
X33750Y-62500D03*
X33750Y-63500D03*
X33750Y-40750D03*
X33750Y-41750D03*
X33750Y-33500D03*
X33750Y-34500D03*
X33750Y-26250D03*
X33750Y-27250D03*
X33750Y-19000D03*
X33750Y-20000D03*
X32730Y-12755D03*
X32730Y-13755D03*
G54D16*
X33750Y-35500D03*
G54D17*
X33750Y-36500D03*
X33750Y-37500D03*
X36750Y-37500D03*
X36750Y-36500D03*
X36750Y-35500D03*
G54D16*
X33750Y-64500D03*
G54D17*
X33750Y-65500D03*
X33750Y-66500D03*
X36750Y-66500D03*
X36750Y-65500D03*
X36750Y-64500D03*
G54D16*
X33750Y-57250D03*
G54D17*
X33750Y-58250D03*
X33750Y-59250D03*
X36750Y-59250D03*
X36750Y-58250D03*
X36750Y-57250D03*
G54D16*
X33750Y-50000D03*
G54D17*
X33750Y-51000D03*
X33750Y-52000D03*
X36750Y-52000D03*
X36750Y-51000D03*
X36750Y-50000D03*
G54D16*
X33750Y-42750D03*
G54D17*
X33750Y-43750D03*
X33750Y-44750D03*
X36750Y-44750D03*
X36750Y-43750D03*
X36750Y-42750D03*
G54D16*
X33750Y-28250D03*
G54D17*
X33750Y-29250D03*
X33750Y-30250D03*
X36750Y-30250D03*
X36750Y-29250D03*
X36750Y-28250D03*
G54D16*
X33750Y-21000D03*
G54D17*
X33750Y-22000D03*
X33750Y-23000D03*
X36750Y-23000D03*
X36750Y-22000D03*
X36750Y-21000D03*
G54D16*
X33730Y-13755D03*
G54D17*
X33730Y-14755D03*
X33730Y-15755D03*
X36730Y-15755D03*
X36730Y-14755D03*
X36730Y-13755D03*
X26750Y-39500D03*
X23750Y-39500D03*
G54D18*
X45250Y-20084D03*
X45250Y-24415D03*
X45250Y-27334D03*
X45250Y-31665D03*
X45250Y-49084D03*
X45250Y-53415D03*
X45250Y-41834D03*
X45250Y-46165D03*
X45250Y-34584D03*
X45250Y-38915D03*
X45250Y-56334D03*
X45250Y-60665D03*
X45250Y-63584D03*
X45250Y-67915D03*
G54D17*
X39750Y-41750D03*
X36750Y-41750D03*
X39750Y-27250D03*
X36750Y-27250D03*
X39750Y-49000D03*
X36750Y-49000D03*
X39750Y-63500D03*
X36750Y-63500D03*
X39750Y-20000D03*
X36750Y-20000D03*
X39750Y-34500D03*
X36750Y-34500D03*
X39750Y-56250D03*
X36750Y-56250D03*
X39730Y-12755D03*
X36730Y-12755D03*
X37750Y-28750D03*
X37750Y-31750D03*
X37750Y-43250D03*
X37750Y-46250D03*
X37750Y-50500D03*
X37750Y-53500D03*
X37750Y-21500D03*
X37750Y-24500D03*
X37730Y-14255D03*
X37730Y-17255D03*
X37750Y-65000D03*
X37750Y-68000D03*
X37750Y-36000D03*
X37750Y-39000D03*
X37750Y-57750D03*
X37750Y-60750D03*
G54D18*
X45230Y-12840D03*
X45230Y-17171D03*
G54D19*
X26660Y-45130D03*
G54D20*
X42250Y-70750D03*
X41250Y-70750D03*
G54D19*
X29735Y-14418D03*
X29757Y-18009D03*
X22836Y-39602D03*
X24787Y-42188D03*
X31727Y-46913D03*
X29417Y-46780D03*
X27892Y-38417D03*
X29946Y-40433D03*
X25664Y-45044D03*
X28076Y-36798D03*
X26811Y-46470D03*
X30504Y-41960D03*
X32534Y-59043D03*
X29892Y-46276D03*
X51674Y-66768D03*
X25213Y-41367D03*
X51690Y-52245D03*
X51666Y-30501D03*
X51626Y-37752D03*
X51661Y-23250D03*
X51653Y-59497D03*
X51582Y-45002D03*
X32206Y-14971D03*
X28554Y-46366D03*
X31750Y-18795D03*
X28004Y-46109D03*
X31777Y-39823D03*
X30163Y-45360D03*
X26452Y-38902D03*
X30035Y-41314D03*
X28346Y-37940D03*
X30168Y-39862D03*
G54D21*
X26750Y-45041D02*
X26660Y-45130D01*
X26750Y-39500D02*
X26750Y-45041D01*
X24250Y-47541D02*
X26660Y-45130D01*
X24250Y-52000D02*
X24250Y-47541D01*
G54D22*
X41250Y-70750D02*
X42250Y-70750D01*
X40599Y-65500D02*
X41000Y-65500D01*
X41250Y-65750D02*
X41250Y-70750D01*
X41000Y-65500D02*
X41250Y-65750D01*
G54D23*
X39290Y-22000D02*
X39291Y-21999D01*
X39000Y-22000D02*
X39290Y-22000D01*
G54D22*
X39291Y-21999D02*
X40634Y-21999D01*
X39554Y-14755D02*
X38980Y-14755D01*
X40634Y-15835D02*
X39554Y-14755D01*
X40634Y-21999D02*
X40634Y-15835D01*
G54D23*
X39490Y-29250D02*
X39499Y-29240D01*
X39000Y-29250D02*
X39490Y-29250D01*
G54D22*
X39499Y-29240D02*
X40634Y-29240D01*
X40634Y-29240D02*
X40634Y-21999D01*
X39000Y-36500D02*
X40634Y-36500D01*
X40634Y-36500D02*
X40634Y-29240D01*
X39000Y-43750D02*
X40634Y-43750D01*
X40634Y-43750D02*
X40634Y-36500D01*
X39000Y-51000D02*
X40634Y-51000D01*
X40634Y-51000D02*
X40634Y-43750D01*
X39000Y-58250D02*
X40634Y-58250D01*
X40634Y-58250D02*
X40634Y-51000D01*
X39000Y-65500D02*
X40400Y-65500D01*
X40400Y-65500D02*
X40599Y-65500D01*
X40634Y-65465D02*
X40634Y-58250D01*
X40599Y-65500D02*
X40634Y-65465D01*
G54D21*
X29735Y-17988D02*
X29757Y-18009D01*
X29735Y-14418D02*
X29735Y-17988D01*
X22836Y-40237D02*
X22836Y-39602D01*
X24787Y-42188D02*
X22836Y-40237D01*
X29550Y-46913D02*
X31727Y-46913D01*
X29417Y-46780D02*
X29550Y-46913D01*
X29908Y-40433D02*
X29946Y-40433D01*
X27892Y-38417D02*
X29908Y-40433D01*
X33242Y-22507D02*
X33750Y-22000D01*
X33242Y-28742D02*
X33242Y-22507D01*
X33750Y-29250D02*
X33242Y-28742D01*
X33236Y-51513D02*
X33750Y-51000D01*
X33236Y-57736D02*
X33236Y-51513D01*
X33750Y-58250D02*
X33236Y-57736D01*
X33236Y-37013D02*
X33750Y-36500D01*
X33236Y-43236D02*
X33236Y-37013D01*
X33750Y-43750D02*
X33236Y-43236D01*
X33227Y-29772D02*
X33750Y-29250D01*
X33227Y-35977D02*
X33227Y-29772D01*
X33750Y-36500D02*
X33227Y-35977D01*
X25664Y-39073D02*
X25664Y-45044D01*
X27939Y-36798D02*
X25664Y-39073D01*
X28076Y-36798D02*
X27939Y-36798D01*
X26811Y-45653D02*
X26811Y-46470D01*
X30504Y-41960D02*
X26811Y-45653D01*
X32055Y-46276D02*
X29892Y-46276D01*
X32534Y-46755D02*
X32055Y-46276D01*
X32534Y-59043D02*
X32534Y-46755D01*
G54D22*
X51674Y-66768D02*
X46397Y-66768D01*
X46397Y-66768D02*
X45250Y-67915D01*
G54D21*
X25106Y-41260D02*
X25213Y-41367D01*
X25106Y-41260D02*
X25106Y-41260D01*
X25106Y-40856D02*
X25106Y-41260D01*
X23750Y-39500D02*
X25106Y-40856D01*
G54D22*
X51690Y-52245D02*
X46419Y-52245D01*
X46419Y-52245D02*
X45250Y-53415D01*
X51666Y-30501D02*
X46414Y-30501D01*
X46414Y-30501D02*
X45250Y-31665D01*
X51626Y-37752D02*
X46413Y-37752D01*
X46413Y-37752D02*
X45250Y-38915D01*
X51661Y-23250D02*
X46414Y-23250D01*
X46414Y-23250D02*
X45250Y-24415D01*
X51653Y-59497D02*
X46417Y-59497D01*
X46417Y-59497D02*
X45250Y-60665D01*
X51582Y-45002D02*
X46412Y-45002D01*
X46412Y-45002D02*
X45250Y-46165D01*
G54D21*
X32206Y-37983D02*
X32206Y-14971D01*
X31302Y-38887D02*
X32206Y-37983D01*
X31302Y-42574D02*
X31302Y-38887D01*
X28554Y-45322D02*
X31302Y-42574D01*
X28554Y-46366D02*
X28554Y-45322D01*
X30918Y-19627D02*
X31750Y-18795D01*
X30918Y-42421D02*
X30918Y-19627D01*
X28004Y-45334D02*
X30918Y-42421D01*
X28004Y-46109D02*
X28004Y-45334D01*
X31777Y-43746D02*
X30163Y-45360D01*
X31777Y-39823D02*
X31777Y-43746D01*
X26452Y-38902D02*
X26452Y-38902D01*
X27624Y-38902D02*
X26452Y-38902D01*
X30035Y-41314D02*
X27624Y-38902D01*
X30168Y-39763D02*
X28346Y-37940D01*
X30168Y-39862D02*
X30168Y-39763D01*
G54D10*
G36*
X42901Y-71151D02*
X40598Y-71151D01*
X40598Y-66226D01*
X40409Y-65848D01*
X40848Y-65848D01*
X40848Y-15459D01*
X39987Y-14598D01*
X42651Y-14598D01*
X42651Y-64773D01*
X42901Y-65273D01*
X42901Y-71151D01*
X42901Y-71151D01*
G37*
G54D24*
X42901Y-71151D02*
X40598Y-71151D01*
X40598Y-66226D01*
X40409Y-65848D01*
X40848Y-65848D01*
X40848Y-15459D01*
X39987Y-14598D01*
X42651Y-14598D01*
X42651Y-64773D01*
X42901Y-65273D01*
X42901Y-71151D01*
M02*
