M48
INCH,TZ
T1C0.024
T2C0.031
T3C0.032
T4C0.035
T5C0.039
T6C0.045
T7C0.047
T8C0.059
%
G90
G05
T1
X22837Y-39603
X24787Y-42188
X25214Y-41368
X25664Y-45045
X26452Y-38903
X26661Y-45131
X26812Y-46470
X27893Y-38418
X28004Y-46110
X28076Y-36798
X28346Y-37941
X28555Y-46367
X29417Y-46780
X29736Y-14419
X29757Y-18010
X29892Y-46277
X29946Y-40434
X30036Y-41314
X30163Y-45361
X30169Y-39863
X30505Y-41961
X31728Y-46914
X31750Y-18795
X31778Y-39824
X32206Y-14971
X32535Y-59043
T2
X24000Y-49500
X25000Y-49500
X26079Y-36569
X27079Y-36569
X27750Y-48500
X29750Y-48500
X39730Y-18256
X39750Y-25500
X39750Y-32750
X39750Y-40000
X39750Y-47250
X39750Y-54500
X39750Y-61750
X39750Y-69000
X43730Y-18256
X43750Y-25500
X43750Y-32750
X43750Y-40000
X43750Y-47250
X43750Y-54500
X43750Y-61750
X43750Y-69000
X45230Y-18256
X45250Y-25500
X45250Y-32750
X45250Y-40000
X45250Y-47250
X45250Y-54500
X45250Y-61750
X45250Y-69000
X49230Y-18256
X49250Y-25500
X49250Y-32750
X49250Y-40000
X49250Y-47250
X49250Y-54500
X49250Y-61750
X49250Y-69000
T3
X23750Y-39500
X26750Y-39500
X32730Y-12756
X32730Y-13756
X33730Y-13756
X33730Y-14756
X33730Y-15756
X33750Y-19000
X33750Y-20000
X33750Y-21000
X33750Y-22000
X33750Y-23000
X33750Y-26250
X33750Y-27250
X33750Y-28250
X33750Y-29250
X33750Y-30250
X33750Y-33500
X33750Y-34500
X33750Y-35500
X33750Y-36500
X33750Y-37500
X33750Y-40750
X33750Y-41750
X33750Y-42750
X33750Y-43750
X33750Y-44750
X33750Y-48000
X33750Y-49000
X33750Y-50000
X33750Y-51000
X33750Y-52000
X33750Y-55250
X33750Y-56250
X33750Y-57250
X33750Y-58250
X33750Y-59250
X33750Y-62500
X33750Y-63500
X33750Y-64500
X33750Y-65500
X33750Y-66500
X36730Y-12756
X36730Y-13756
X36730Y-14756
X36730Y-15756
X36750Y-20000
X36750Y-21000
X36750Y-22000
X36750Y-23000
X36750Y-27250
X36750Y-28250
X36750Y-29250
X36750Y-30250
X36750Y-34500
X36750Y-35500
X36750Y-36500
X36750Y-37500
X36750Y-41750
X36750Y-42750
X36750Y-43750
X36750Y-44750
X36750Y-49000
X36750Y-50000
X36750Y-51000
X36750Y-52000
X36750Y-56250
X36750Y-57250
X36750Y-58250
X36750Y-59250
X36750Y-63500
X36750Y-64500
X36750Y-65500
X36750Y-66500
X37730Y-14256
X37730Y-17256
X37750Y-21500
X37750Y-24500
X37750Y-28750
X37750Y-31750
X37750Y-36000
X37750Y-39000
X37750Y-43250
X37750Y-46250
X37750Y-50500
X37750Y-53500
X37750Y-57750
X37750Y-60750
X37750Y-65000
X37750Y-68000
X39730Y-12756
X39750Y-20000
X39750Y-27250
X39750Y-34500
X39750Y-41750
X39750Y-49000
X39750Y-56250
X39750Y-63500
T4
X29781Y-52843
X29781Y-54843
T5
X22819Y-43421
X22819Y-44421
X22819Y-45421
X23563Y-63313
X23563Y-65281
X23563Y-67250
X23563Y-69219
X23563Y-71187
X23819Y-43421
X23819Y-44421
X23819Y-45421
X26329Y-33569
X27329Y-33569
X31437Y-63313
X31437Y-65281
X31437Y-69219
X31437Y-71187
X38980Y-13756
X38980Y-14756
X38980Y-15756
X39000Y-21000
X39000Y-22000
X39000Y-23000
X39000Y-28250
X39000Y-29250
X39000Y-30250
X39000Y-35500
X39000Y-36500
X39000Y-37500
X39000Y-42750
X39000Y-43750
X39000Y-44750
X39000Y-50000
X39000Y-51000
X39000Y-52000
X39000Y-57250
X39000Y-58250
X39000Y-59250
X39000Y-64500
X39000Y-65500
X39000Y-66500
X50750Y-68750
X50980Y-18256
X51000Y-25500
X51000Y-32750
X51000Y-40000
X51000Y-47250
X51000Y-54500
X51000Y-61750
X53750Y-68750
X53980Y-18256
X54000Y-25500
X54000Y-32750
X54000Y-40000
X54000Y-47250
X54000Y-54500
X54000Y-61750
T6
X24250Y-52000
X24250Y-53000
X24250Y-54000
T7
X26250Y-57500
X26266Y-59484
X28234Y-59484
X28250Y-57500
X45230Y-12841
X45230Y-17171
X45250Y-20085
X45250Y-24415
X45250Y-27335
X45250Y-31665
X45250Y-34585
X45250Y-38915
X45250Y-41835
X45250Y-46165
X45250Y-49085
X45250Y-53415
X45250Y-56335
X45250Y-60665
X45250Y-63585
X45250Y-67915
T8
X23579Y-13319
X23579Y-15319
X23579Y-17319
X23579Y-19319
X23579Y-21319
X23579Y-23319
X23579Y-25319
X23579Y-27319
X23579Y-29319
X23579Y-31319
X23579Y-33319
X23579Y-35319
X23579Y-37319
X41250Y-70750
X42250Y-70750
X51582Y-45002
X51626Y-37752
X51654Y-59498
X51661Y-23250
X51667Y-30501
X51675Y-66768
X51690Y-52246
X53500Y-14000
X53500Y-16000
X53500Y-21250
X53500Y-23250
X53500Y-28500
X53500Y-30500
X53500Y-35750
X53500Y-37750
X53500Y-43000
X53500Y-45000
X53500Y-50250
X53500Y-52250
X53500Y-57500
X53500Y-59500
X53500Y-64750
X53500Y-66750
X53500Y-70500
X53500Y-72500
T0
M30
