G04 (created by PCBNEW (2013-07-07 BZR 4022)-stable) date 2014.08.18 14:47:36*
%MOIN*%
G04 Gerber Fmt 3.4, Leading zero omitted, Abs format*
%FSLAX34Y34*%
G01*
G70*
G90*
G04 APERTURE LIST*
%ADD10C,0.00590551*%
%ADD11C,0.006*%
%ADD12C,0.005*%
%ADD13C,0.0039*%
%ADD14C,0.008*%
%ADD15C,0.0059*%
%ADD16C,0.0043*%
G04 APERTURE END LIST*
G54D10*
G54D11*
X26520Y-44590D02*
X26970Y-44590D01*
X26520Y-42410D02*
X26960Y-42410D01*
X26520Y-44590D02*
X26520Y-42410D01*
X27400Y-45060D02*
X27400Y-45490D01*
X29610Y-45070D02*
X29610Y-45490D01*
X29620Y-45490D02*
X27400Y-45500D01*
X29600Y-41520D02*
X27430Y-41510D01*
X30030Y-42210D02*
X30030Y-45040D01*
X27420Y-41520D02*
X27420Y-41930D01*
X29780Y-41970D02*
X27000Y-41970D01*
X26980Y-45050D02*
X26980Y-42010D01*
X30030Y-45050D02*
X27030Y-45050D01*
X30480Y-42380D02*
X30480Y-44600D01*
X30480Y-44600D02*
X30030Y-44600D01*
X30026Y-42200D02*
X29796Y-41970D01*
X30478Y-42380D02*
X30026Y-42380D01*
X29600Y-41970D02*
X29600Y-41518D01*
X29806Y-42374D02*
G75*
G03X29806Y-42374I-188J0D01*
G74*
G01*
G54D12*
X25798Y-34118D02*
X27358Y-34118D01*
X27358Y-34118D02*
X27358Y-36018D01*
X27358Y-36018D02*
X25798Y-36018D01*
X25798Y-36018D02*
X25798Y-34118D01*
X25798Y-34318D02*
X25368Y-34318D01*
X25798Y-34818D02*
X25368Y-34818D01*
X25798Y-35318D02*
X25368Y-35318D01*
X25368Y-35818D02*
X25798Y-35818D01*
X27358Y-35818D02*
X27788Y-35818D01*
X27788Y-35318D02*
X27358Y-35318D01*
X27788Y-34818D02*
X27358Y-34818D01*
X27788Y-34318D02*
X27358Y-34318D01*
X27254Y-34408D02*
G75*
G03X27254Y-34408I-186J0D01*
G74*
G01*
X29078Y-18868D02*
X29078Y-19768D01*
X29078Y-19768D02*
X28428Y-19768D01*
X27728Y-18868D02*
X27078Y-18868D01*
X27078Y-18868D02*
X27078Y-19768D01*
X27078Y-19768D02*
X27728Y-19768D01*
X28428Y-18868D02*
X29078Y-18868D01*
X29078Y-20868D02*
X29078Y-21768D01*
X29078Y-21768D02*
X28428Y-21768D01*
X27728Y-20868D02*
X27078Y-20868D01*
X27078Y-20868D02*
X27078Y-21768D01*
X27078Y-21768D02*
X27728Y-21768D01*
X28428Y-20868D02*
X29078Y-20868D01*
X29078Y-22868D02*
X29078Y-23768D01*
X29078Y-23768D02*
X28428Y-23768D01*
X27728Y-22868D02*
X27078Y-22868D01*
X27078Y-22868D02*
X27078Y-23768D01*
X27078Y-23768D02*
X27728Y-23768D01*
X28428Y-22868D02*
X29078Y-22868D01*
X29078Y-12868D02*
X29078Y-13768D01*
X29078Y-13768D02*
X28428Y-13768D01*
X27728Y-12868D02*
X27078Y-12868D01*
X27078Y-12868D02*
X27078Y-13768D01*
X27078Y-13768D02*
X27728Y-13768D01*
X28428Y-12868D02*
X29078Y-12868D01*
X29078Y-16868D02*
X29078Y-17768D01*
X29078Y-17768D02*
X28428Y-17768D01*
X27728Y-16868D02*
X27078Y-16868D01*
X27078Y-16868D02*
X27078Y-17768D01*
X27078Y-17768D02*
X27728Y-17768D01*
X28428Y-16868D02*
X29078Y-16868D01*
X29078Y-14868D02*
X29078Y-15768D01*
X29078Y-15768D02*
X28428Y-15768D01*
X27728Y-14868D02*
X27078Y-14868D01*
X27078Y-14868D02*
X27078Y-15768D01*
X27078Y-15768D02*
X27728Y-15768D01*
X28428Y-14868D02*
X29078Y-14868D01*
X29078Y-26868D02*
X29078Y-27768D01*
X29078Y-27768D02*
X28428Y-27768D01*
X27728Y-26868D02*
X27078Y-26868D01*
X27078Y-26868D02*
X27078Y-27768D01*
X27078Y-27768D02*
X27728Y-27768D01*
X28428Y-26868D02*
X29078Y-26868D01*
X25450Y-57750D02*
X24550Y-57750D01*
X24550Y-57750D02*
X24550Y-57100D01*
X25450Y-56400D02*
X25450Y-55750D01*
X25450Y-55750D02*
X24550Y-55750D01*
X24550Y-55750D02*
X24550Y-56400D01*
X25450Y-57100D02*
X25450Y-57750D01*
X29078Y-24868D02*
X29078Y-25768D01*
X29078Y-25768D02*
X28428Y-25768D01*
X27728Y-24868D02*
X27078Y-24868D01*
X27078Y-24868D02*
X27078Y-25768D01*
X27078Y-25768D02*
X27728Y-25768D01*
X28428Y-24868D02*
X29078Y-24868D01*
X26878Y-29568D02*
X27778Y-29568D01*
X27778Y-29568D02*
X27778Y-30218D01*
X26878Y-30918D02*
X26878Y-31568D01*
X26878Y-31568D02*
X27778Y-31568D01*
X27778Y-31568D02*
X27778Y-30918D01*
X26878Y-30218D02*
X26878Y-29568D01*
X29950Y-59000D02*
X29050Y-59000D01*
X29050Y-59000D02*
X29050Y-58350D01*
X29950Y-57650D02*
X29950Y-57000D01*
X29950Y-57000D02*
X29050Y-57000D01*
X29050Y-57000D02*
X29050Y-57650D01*
X29950Y-58350D02*
X29950Y-59000D01*
G54D13*
X23600Y-51850D02*
G75*
G03X23600Y-51850I-50J0D01*
G74*
G01*
X23550Y-52300D02*
X23550Y-51900D01*
X23550Y-51900D02*
X22950Y-51900D01*
X22950Y-51900D02*
X22950Y-52300D01*
X22950Y-52700D02*
X22950Y-53100D01*
X22950Y-53100D02*
X23550Y-53100D01*
X23550Y-53100D02*
X23550Y-52700D01*
X24100Y-41600D02*
G75*
G03X24100Y-41600I-50J0D01*
G74*
G01*
X24050Y-42050D02*
X24050Y-41650D01*
X24050Y-41650D02*
X23450Y-41650D01*
X23450Y-41650D02*
X23450Y-42050D01*
X23450Y-42450D02*
X23450Y-42850D01*
X23450Y-42850D02*
X24050Y-42850D01*
X24050Y-42850D02*
X24050Y-42450D01*
X23950Y-40800D02*
G75*
G03X23950Y-40800I-50J0D01*
G74*
G01*
X23450Y-40800D02*
X23850Y-40800D01*
X23850Y-40800D02*
X23850Y-40200D01*
X23850Y-40200D02*
X23450Y-40200D01*
X23050Y-40200D02*
X22650Y-40200D01*
X22650Y-40200D02*
X22650Y-40800D01*
X22650Y-40800D02*
X23050Y-40800D01*
X26228Y-32268D02*
G75*
G03X26228Y-32268I-50J0D01*
G74*
G01*
X26628Y-32268D02*
X26228Y-32268D01*
X26228Y-32268D02*
X26228Y-32868D01*
X26228Y-32868D02*
X26628Y-32868D01*
X27028Y-32868D02*
X27428Y-32868D01*
X27428Y-32868D02*
X27428Y-32268D01*
X27428Y-32268D02*
X27028Y-32268D01*
X22500Y-42900D02*
G75*
G03X22500Y-42900I-50J0D01*
G74*
G01*
X22450Y-42450D02*
X22450Y-42850D01*
X22450Y-42850D02*
X23050Y-42850D01*
X23050Y-42850D02*
X23050Y-42450D01*
X23050Y-42050D02*
X23050Y-41650D01*
X23050Y-41650D02*
X22450Y-41650D01*
X22450Y-41650D02*
X22450Y-42050D01*
X28900Y-49200D02*
G75*
G03X28900Y-49200I-50J0D01*
G74*
G01*
X29300Y-49200D02*
X28900Y-49200D01*
X28900Y-49200D02*
X28900Y-49800D01*
X28900Y-49800D02*
X29300Y-49800D01*
X29700Y-49800D02*
X30100Y-49800D01*
X30100Y-49800D02*
X30100Y-49200D01*
X30100Y-49200D02*
X29700Y-49200D01*
X23500Y-56400D02*
G75*
G03X23500Y-56400I-50J0D01*
G74*
G01*
X23450Y-55950D02*
X23450Y-56350D01*
X23450Y-56350D02*
X24050Y-56350D01*
X24050Y-56350D02*
X24050Y-55950D01*
X24050Y-55550D02*
X24050Y-55150D01*
X24050Y-55150D02*
X23450Y-55150D01*
X23450Y-55150D02*
X23450Y-55550D01*
X30500Y-57650D02*
G75*
G03X30500Y-57650I-50J0D01*
G74*
G01*
X30450Y-57200D02*
X30450Y-57600D01*
X30450Y-57600D02*
X31050Y-57600D01*
X31050Y-57600D02*
X31050Y-57200D01*
X31050Y-56800D02*
X31050Y-56400D01*
X31050Y-56400D02*
X30450Y-56400D01*
X30450Y-56400D02*
X30450Y-56800D01*
X23831Y-48028D02*
G75*
G03X23831Y-48028I-50J0D01*
G74*
G01*
X24231Y-48028D02*
X23831Y-48028D01*
X23831Y-48028D02*
X23831Y-48628D01*
X23831Y-48628D02*
X24231Y-48628D01*
X24631Y-48628D02*
X25031Y-48628D01*
X25031Y-48628D02*
X25031Y-48028D01*
X25031Y-48028D02*
X24631Y-48028D01*
X23831Y-47278D02*
G75*
G03X23831Y-47278I-50J0D01*
G74*
G01*
X24231Y-47278D02*
X23831Y-47278D01*
X23831Y-47278D02*
X23831Y-47878D01*
X23831Y-47878D02*
X24231Y-47878D01*
X24631Y-47878D02*
X25031Y-47878D01*
X25031Y-47878D02*
X25031Y-47278D01*
X25031Y-47278D02*
X24631Y-47278D01*
X27278Y-37618D02*
G75*
G03X27278Y-37618I-50J0D01*
G74*
G01*
X26778Y-37618D02*
X27178Y-37618D01*
X27178Y-37618D02*
X27178Y-37018D01*
X27178Y-37018D02*
X26778Y-37018D01*
X26378Y-37018D02*
X25978Y-37018D01*
X25978Y-37018D02*
X25978Y-37618D01*
X25978Y-37618D02*
X26378Y-37618D01*
X27278Y-38368D02*
G75*
G03X27278Y-38368I-50J0D01*
G74*
G01*
X26778Y-38368D02*
X27178Y-38368D01*
X27178Y-38368D02*
X27178Y-37768D01*
X27178Y-37768D02*
X26778Y-37768D01*
X26378Y-37768D02*
X25978Y-37768D01*
X25978Y-37768D02*
X25978Y-38368D01*
X25978Y-38368D02*
X26378Y-38368D01*
X24100Y-56850D02*
G75*
G03X24100Y-56850I-50J0D01*
G74*
G01*
X24050Y-57300D02*
X24050Y-56900D01*
X24050Y-56900D02*
X23450Y-56900D01*
X23450Y-56900D02*
X23450Y-57300D01*
X23450Y-57700D02*
X23450Y-58100D01*
X23450Y-58100D02*
X24050Y-58100D01*
X24050Y-58100D02*
X24050Y-57700D01*
X31100Y-58100D02*
G75*
G03X31100Y-58100I-50J0D01*
G74*
G01*
X31050Y-58550D02*
X31050Y-58150D01*
X31050Y-58150D02*
X30450Y-58150D01*
X30450Y-58150D02*
X30450Y-58550D01*
X30450Y-58950D02*
X30450Y-59350D01*
X30450Y-59350D02*
X31050Y-59350D01*
X31050Y-59350D02*
X31050Y-58950D01*
X24578Y-31968D02*
G75*
G03X24578Y-31968I-50J0D01*
G74*
G01*
X24528Y-31518D02*
X24528Y-31918D01*
X24528Y-31918D02*
X25128Y-31918D01*
X25128Y-31918D02*
X25128Y-31518D01*
X25128Y-31118D02*
X25128Y-30718D01*
X25128Y-30718D02*
X24528Y-30718D01*
X24528Y-30718D02*
X24528Y-31118D01*
X25478Y-30768D02*
G75*
G03X25478Y-30768I-50J0D01*
G74*
G01*
X25878Y-30768D02*
X25478Y-30768D01*
X25478Y-30768D02*
X25478Y-31368D01*
X25478Y-31368D02*
X25878Y-31368D01*
X26278Y-31368D02*
X26678Y-31368D01*
X26678Y-31368D02*
X26678Y-30768D01*
X26678Y-30768D02*
X26278Y-30768D01*
X32900Y-32200D02*
G75*
G03X32900Y-32200I-50J0D01*
G74*
G01*
X33300Y-32200D02*
X32900Y-32200D01*
X32900Y-32200D02*
X32900Y-32800D01*
X32900Y-32800D02*
X33300Y-32800D01*
X33700Y-32800D02*
X34100Y-32800D01*
X34100Y-32800D02*
X34100Y-32200D01*
X34100Y-32200D02*
X33700Y-32200D01*
X24578Y-17968D02*
G75*
G03X24578Y-17968I-50J0D01*
G74*
G01*
X24528Y-17518D02*
X24528Y-17918D01*
X24528Y-17918D02*
X25128Y-17918D01*
X25128Y-17918D02*
X25128Y-17518D01*
X25128Y-17118D02*
X25128Y-16718D01*
X25128Y-16718D02*
X24528Y-16718D01*
X24528Y-16718D02*
X24528Y-17118D01*
X25578Y-19968D02*
G75*
G03X25578Y-19968I-50J0D01*
G74*
G01*
X25528Y-19518D02*
X25528Y-19918D01*
X25528Y-19918D02*
X26128Y-19918D01*
X26128Y-19918D02*
X26128Y-19518D01*
X26128Y-19118D02*
X26128Y-18718D01*
X26128Y-18718D02*
X25528Y-18718D01*
X25528Y-18718D02*
X25528Y-19118D01*
X26928Y-18668D02*
G75*
G03X26928Y-18668I-50J0D01*
G74*
G01*
X26878Y-19118D02*
X26878Y-18718D01*
X26878Y-18718D02*
X26278Y-18718D01*
X26278Y-18718D02*
X26278Y-19118D01*
X26278Y-19518D02*
X26278Y-19918D01*
X26278Y-19918D02*
X26878Y-19918D01*
X26878Y-19918D02*
X26878Y-19518D01*
X24578Y-19968D02*
G75*
G03X24578Y-19968I-50J0D01*
G74*
G01*
X24528Y-19518D02*
X24528Y-19918D01*
X24528Y-19918D02*
X25128Y-19918D01*
X25128Y-19918D02*
X25128Y-19518D01*
X25128Y-19118D02*
X25128Y-18718D01*
X25128Y-18718D02*
X24528Y-18718D01*
X24528Y-18718D02*
X24528Y-19118D01*
X25578Y-21968D02*
G75*
G03X25578Y-21968I-50J0D01*
G74*
G01*
X25528Y-21518D02*
X25528Y-21918D01*
X25528Y-21918D02*
X26128Y-21918D01*
X26128Y-21918D02*
X26128Y-21518D01*
X26128Y-21118D02*
X26128Y-20718D01*
X26128Y-20718D02*
X25528Y-20718D01*
X25528Y-20718D02*
X25528Y-21118D01*
X26928Y-20668D02*
G75*
G03X26928Y-20668I-50J0D01*
G74*
G01*
X26878Y-21118D02*
X26878Y-20718D01*
X26878Y-20718D02*
X26278Y-20718D01*
X26278Y-20718D02*
X26278Y-21118D01*
X26278Y-21518D02*
X26278Y-21918D01*
X26278Y-21918D02*
X26878Y-21918D01*
X26878Y-21918D02*
X26878Y-21518D01*
X24578Y-21968D02*
G75*
G03X24578Y-21968I-50J0D01*
G74*
G01*
X24528Y-21518D02*
X24528Y-21918D01*
X24528Y-21918D02*
X25128Y-21918D01*
X25128Y-21918D02*
X25128Y-21518D01*
X25128Y-21118D02*
X25128Y-20718D01*
X25128Y-20718D02*
X24528Y-20718D01*
X24528Y-20718D02*
X24528Y-21118D01*
X25578Y-23968D02*
G75*
G03X25578Y-23968I-50J0D01*
G74*
G01*
X25528Y-23518D02*
X25528Y-23918D01*
X25528Y-23918D02*
X26128Y-23918D01*
X26128Y-23918D02*
X26128Y-23518D01*
X26128Y-23118D02*
X26128Y-22718D01*
X26128Y-22718D02*
X25528Y-22718D01*
X25528Y-22718D02*
X25528Y-23118D01*
X26928Y-22668D02*
G75*
G03X26928Y-22668I-50J0D01*
G74*
G01*
X26878Y-23118D02*
X26878Y-22718D01*
X26878Y-22718D02*
X26278Y-22718D01*
X26278Y-22718D02*
X26278Y-23118D01*
X26278Y-23518D02*
X26278Y-23918D01*
X26278Y-23918D02*
X26878Y-23918D01*
X26878Y-23918D02*
X26878Y-23518D01*
X24578Y-23968D02*
G75*
G03X24578Y-23968I-50J0D01*
G74*
G01*
X24528Y-23518D02*
X24528Y-23918D01*
X24528Y-23918D02*
X25128Y-23918D01*
X25128Y-23918D02*
X25128Y-23518D01*
X25128Y-23118D02*
X25128Y-22718D01*
X25128Y-22718D02*
X24528Y-22718D01*
X24528Y-22718D02*
X24528Y-23118D01*
X28700Y-49800D02*
G75*
G03X28700Y-49800I-50J0D01*
G74*
G01*
X28200Y-49800D02*
X28600Y-49800D01*
X28600Y-49800D02*
X28600Y-49200D01*
X28600Y-49200D02*
X28200Y-49200D01*
X27800Y-49200D02*
X27400Y-49200D01*
X27400Y-49200D02*
X27400Y-49800D01*
X27400Y-49800D02*
X27800Y-49800D01*
X32900Y-24950D02*
G75*
G03X32900Y-24950I-50J0D01*
G74*
G01*
X33300Y-24950D02*
X32900Y-24950D01*
X32900Y-24950D02*
X32900Y-25550D01*
X32900Y-25550D02*
X33300Y-25550D01*
X33700Y-25550D02*
X34100Y-25550D01*
X34100Y-25550D02*
X34100Y-24950D01*
X34100Y-24950D02*
X33700Y-24950D01*
X34100Y-60850D02*
G75*
G03X34100Y-60850I-50J0D01*
G74*
G01*
X34050Y-61300D02*
X34050Y-60900D01*
X34050Y-60900D02*
X33450Y-60900D01*
X33450Y-60900D02*
X33450Y-61300D01*
X33450Y-61700D02*
X33450Y-62100D01*
X33450Y-62100D02*
X34050Y-62100D01*
X34050Y-62100D02*
X34050Y-61700D01*
X34100Y-53600D02*
G75*
G03X34100Y-53600I-50J0D01*
G74*
G01*
X34050Y-54050D02*
X34050Y-53650D01*
X34050Y-53650D02*
X33450Y-53650D01*
X33450Y-53650D02*
X33450Y-54050D01*
X33450Y-54450D02*
X33450Y-54850D01*
X33450Y-54850D02*
X34050Y-54850D01*
X34050Y-54850D02*
X34050Y-54450D01*
X34100Y-46350D02*
G75*
G03X34100Y-46350I-50J0D01*
G74*
G01*
X34050Y-46800D02*
X34050Y-46400D01*
X34050Y-46400D02*
X33450Y-46400D01*
X33450Y-46400D02*
X33450Y-46800D01*
X33450Y-47200D02*
X33450Y-47600D01*
X33450Y-47600D02*
X34050Y-47600D01*
X34050Y-47600D02*
X34050Y-47200D01*
X32900Y-39450D02*
G75*
G03X32900Y-39450I-50J0D01*
G74*
G01*
X33300Y-39450D02*
X32900Y-39450D01*
X32900Y-39450D02*
X32900Y-40050D01*
X32900Y-40050D02*
X33300Y-40050D01*
X33700Y-40050D02*
X34100Y-40050D01*
X34100Y-40050D02*
X34100Y-39450D01*
X34100Y-39450D02*
X33700Y-39450D01*
X32900Y-17700D02*
G75*
G03X32900Y-17700I-50J0D01*
G74*
G01*
X33300Y-17700D02*
X32900Y-17700D01*
X32900Y-17700D02*
X32900Y-18300D01*
X32900Y-18300D02*
X33300Y-18300D01*
X33700Y-18300D02*
X34100Y-18300D01*
X34100Y-18300D02*
X34100Y-17700D01*
X34100Y-17700D02*
X33700Y-17700D01*
X31480Y-13905D02*
G75*
G03X31480Y-13905I-50J0D01*
G74*
G01*
X31430Y-13455D02*
X31430Y-13855D01*
X31430Y-13855D02*
X32030Y-13855D01*
X32030Y-13855D02*
X32030Y-13455D01*
X32030Y-13055D02*
X32030Y-12655D01*
X32030Y-12655D02*
X31430Y-12655D01*
X31430Y-12655D02*
X31430Y-13055D01*
X26928Y-16668D02*
G75*
G03X26928Y-16668I-50J0D01*
G74*
G01*
X26878Y-17118D02*
X26878Y-16718D01*
X26878Y-16718D02*
X26278Y-16718D01*
X26278Y-16718D02*
X26278Y-17118D01*
X26278Y-17518D02*
X26278Y-17918D01*
X26278Y-17918D02*
X26878Y-17918D01*
X26878Y-17918D02*
X26878Y-17518D01*
X25578Y-25968D02*
G75*
G03X25578Y-25968I-50J0D01*
G74*
G01*
X25528Y-25518D02*
X25528Y-25918D01*
X25528Y-25918D02*
X26128Y-25918D01*
X26128Y-25918D02*
X26128Y-25518D01*
X26128Y-25118D02*
X26128Y-24718D01*
X26128Y-24718D02*
X25528Y-24718D01*
X25528Y-24718D02*
X25528Y-25118D01*
X26928Y-24668D02*
G75*
G03X26928Y-24668I-50J0D01*
G74*
G01*
X26878Y-25118D02*
X26878Y-24718D01*
X26878Y-24718D02*
X26278Y-24718D01*
X26278Y-24718D02*
X26278Y-25118D01*
X26278Y-25518D02*
X26278Y-25918D01*
X26278Y-25918D02*
X26878Y-25918D01*
X26878Y-25918D02*
X26878Y-25518D01*
X24578Y-25968D02*
G75*
G03X24578Y-25968I-50J0D01*
G74*
G01*
X24528Y-25518D02*
X24528Y-25918D01*
X24528Y-25918D02*
X25128Y-25918D01*
X25128Y-25918D02*
X25128Y-25518D01*
X25128Y-25118D02*
X25128Y-24718D01*
X25128Y-24718D02*
X24528Y-24718D01*
X24528Y-24718D02*
X24528Y-25118D01*
X25578Y-27968D02*
G75*
G03X25578Y-27968I-50J0D01*
G74*
G01*
X25528Y-27518D02*
X25528Y-27918D01*
X25528Y-27918D02*
X26128Y-27918D01*
X26128Y-27918D02*
X26128Y-27518D01*
X26128Y-27118D02*
X26128Y-26718D01*
X26128Y-26718D02*
X25528Y-26718D01*
X25528Y-26718D02*
X25528Y-27118D01*
X26928Y-26668D02*
G75*
G03X26928Y-26668I-50J0D01*
G74*
G01*
X26878Y-27118D02*
X26878Y-26718D01*
X26878Y-26718D02*
X26278Y-26718D01*
X26278Y-26718D02*
X26278Y-27118D01*
X26278Y-27518D02*
X26278Y-27918D01*
X26278Y-27918D02*
X26878Y-27918D01*
X26878Y-27918D02*
X26878Y-27518D01*
X24578Y-27968D02*
G75*
G03X24578Y-27968I-50J0D01*
G74*
G01*
X24528Y-27518D02*
X24528Y-27918D01*
X24528Y-27918D02*
X25128Y-27918D01*
X25128Y-27918D02*
X25128Y-27518D01*
X25128Y-27118D02*
X25128Y-26718D01*
X25128Y-26718D02*
X24528Y-26718D01*
X24528Y-26718D02*
X24528Y-27118D01*
X25578Y-13968D02*
G75*
G03X25578Y-13968I-50J0D01*
G74*
G01*
X25528Y-13518D02*
X25528Y-13918D01*
X25528Y-13918D02*
X26128Y-13918D01*
X26128Y-13918D02*
X26128Y-13518D01*
X26128Y-13118D02*
X26128Y-12718D01*
X26128Y-12718D02*
X25528Y-12718D01*
X25528Y-12718D02*
X25528Y-13118D01*
X26928Y-12668D02*
G75*
G03X26928Y-12668I-50J0D01*
G74*
G01*
X26878Y-13118D02*
X26878Y-12718D01*
X26878Y-12718D02*
X26278Y-12718D01*
X26278Y-12718D02*
X26278Y-13118D01*
X26278Y-13518D02*
X26278Y-13918D01*
X26278Y-13918D02*
X26878Y-13918D01*
X26878Y-13918D02*
X26878Y-13518D01*
X24578Y-13968D02*
G75*
G03X24578Y-13968I-50J0D01*
G74*
G01*
X24528Y-13518D02*
X24528Y-13918D01*
X24528Y-13918D02*
X25128Y-13918D01*
X25128Y-13918D02*
X25128Y-13518D01*
X25128Y-13118D02*
X25128Y-12718D01*
X25128Y-12718D02*
X24528Y-12718D01*
X24528Y-12718D02*
X24528Y-13118D01*
X25578Y-15968D02*
G75*
G03X25578Y-15968I-50J0D01*
G74*
G01*
X25528Y-15518D02*
X25528Y-15918D01*
X25528Y-15918D02*
X26128Y-15918D01*
X26128Y-15918D02*
X26128Y-15518D01*
X26128Y-15118D02*
X26128Y-14718D01*
X26128Y-14718D02*
X25528Y-14718D01*
X25528Y-14718D02*
X25528Y-15118D01*
X26928Y-14668D02*
G75*
G03X26928Y-14668I-50J0D01*
G74*
G01*
X26878Y-15118D02*
X26878Y-14718D01*
X26878Y-14718D02*
X26278Y-14718D01*
X26278Y-14718D02*
X26278Y-15118D01*
X26278Y-15518D02*
X26278Y-15918D01*
X26278Y-15918D02*
X26878Y-15918D01*
X26878Y-15918D02*
X26878Y-15518D01*
X24578Y-15968D02*
G75*
G03X24578Y-15968I-50J0D01*
G74*
G01*
X24528Y-15518D02*
X24528Y-15918D01*
X24528Y-15918D02*
X25128Y-15918D01*
X25128Y-15918D02*
X25128Y-15518D01*
X25128Y-15118D02*
X25128Y-14718D01*
X25128Y-14718D02*
X24528Y-14718D01*
X24528Y-14718D02*
X24528Y-15118D01*
X25578Y-17968D02*
G75*
G03X25578Y-17968I-50J0D01*
G74*
G01*
X25528Y-17518D02*
X25528Y-17918D01*
X25528Y-17918D02*
X26128Y-17918D01*
X26128Y-17918D02*
X26128Y-17518D01*
X26128Y-17118D02*
X26128Y-16718D01*
X26128Y-16718D02*
X25528Y-16718D01*
X25528Y-16718D02*
X25528Y-17118D01*
X24400Y-58200D02*
G75*
G03X24400Y-58200I-50J0D01*
G74*
G01*
X24800Y-58200D02*
X24400Y-58200D01*
X24400Y-58200D02*
X24400Y-58800D01*
X24400Y-58800D02*
X24800Y-58800D01*
X25200Y-58800D02*
X25600Y-58800D01*
X25600Y-58800D02*
X25600Y-58200D01*
X25600Y-58200D02*
X25200Y-58200D01*
X30200Y-60050D02*
G75*
G03X30200Y-60050I-50J0D01*
G74*
G01*
X29700Y-60050D02*
X30100Y-60050D01*
X30100Y-60050D02*
X30100Y-59450D01*
X30100Y-59450D02*
X29700Y-59450D01*
X29300Y-59450D02*
X28900Y-59450D01*
X28900Y-59450D02*
X28900Y-60050D01*
X28900Y-60050D02*
X29300Y-60050D01*
G54D14*
X28890Y-43202D02*
X28890Y-42702D01*
X28471Y-43154D02*
X28490Y-43178D01*
X28547Y-43202D01*
X28585Y-43202D01*
X28642Y-43178D01*
X28680Y-43130D01*
X28699Y-43083D01*
X28719Y-42988D01*
X28719Y-42916D01*
X28699Y-42821D01*
X28680Y-42773D01*
X28642Y-42726D01*
X28585Y-42702D01*
X28547Y-42702D01*
X28490Y-42726D01*
X28471Y-42750D01*
X28319Y-42750D02*
X28299Y-42726D01*
X28261Y-42702D01*
X28166Y-42702D01*
X28128Y-42726D01*
X28109Y-42750D01*
X28090Y-42797D01*
X28090Y-42845D01*
X28109Y-42916D01*
X28338Y-43202D01*
X28090Y-43202D01*
X30519Y-44309D02*
X30328Y-44309D01*
X30557Y-44452D02*
X30423Y-43952D01*
X30290Y-44452D01*
X30214Y-43952D02*
X29985Y-43952D01*
X30099Y-44452D02*
X30099Y-43952D01*
X29852Y-44452D02*
X29852Y-43952D01*
X29719Y-44309D01*
X29585Y-43952D01*
X29585Y-44452D01*
X29395Y-44190D02*
X29261Y-44190D01*
X29204Y-44452D02*
X29395Y-44452D01*
X29395Y-43952D01*
X29204Y-43952D01*
X28823Y-43976D02*
X28861Y-43952D01*
X28919Y-43952D01*
X28976Y-43976D01*
X29014Y-44023D01*
X29033Y-44071D01*
X29052Y-44166D01*
X29052Y-44238D01*
X29033Y-44333D01*
X29014Y-44380D01*
X28976Y-44428D01*
X28919Y-44452D01*
X28880Y-44452D01*
X28823Y-44428D01*
X28804Y-44404D01*
X28804Y-44238D01*
X28880Y-44238D01*
X28652Y-44309D02*
X28461Y-44309D01*
X28690Y-44452D02*
X28557Y-43952D01*
X28423Y-44452D01*
X28328Y-43952D02*
X28080Y-43952D01*
X28214Y-44142D01*
X28157Y-44142D01*
X28119Y-44166D01*
X28100Y-44190D01*
X28080Y-44238D01*
X28080Y-44357D01*
X28100Y-44404D01*
X28119Y-44428D01*
X28157Y-44452D01*
X28271Y-44452D01*
X28309Y-44428D01*
X28328Y-44404D01*
X27928Y-44000D02*
X27909Y-43976D01*
X27871Y-43952D01*
X27776Y-43952D01*
X27738Y-43976D01*
X27719Y-44000D01*
X27700Y-44047D01*
X27700Y-44095D01*
X27719Y-44166D01*
X27947Y-44452D01*
X27700Y-44452D01*
X27471Y-44166D02*
X27509Y-44142D01*
X27528Y-44119D01*
X27547Y-44071D01*
X27547Y-44047D01*
X27528Y-44000D01*
X27509Y-43976D01*
X27471Y-43952D01*
X27395Y-43952D01*
X27357Y-43976D01*
X27338Y-44000D01*
X27319Y-44047D01*
X27319Y-44071D01*
X27338Y-44119D01*
X27357Y-44142D01*
X27395Y-44166D01*
X27471Y-44166D01*
X27509Y-44190D01*
X27528Y-44214D01*
X27547Y-44261D01*
X27547Y-44357D01*
X27528Y-44404D01*
X27509Y-44428D01*
X27471Y-44452D01*
X27395Y-44452D01*
X27357Y-44428D01*
X27338Y-44404D01*
X27319Y-44357D01*
X27319Y-44261D01*
X27338Y-44214D01*
X27357Y-44190D01*
X27395Y-44166D01*
X27147Y-44261D02*
X26842Y-44261D01*
X26671Y-44309D02*
X26480Y-44309D01*
X26709Y-44452D02*
X26576Y-43952D01*
X26442Y-44452D01*
G54D15*
X26298Y-34780D02*
X26003Y-34780D01*
X26270Y-35089D02*
X26284Y-35075D01*
X26298Y-35033D01*
X26298Y-35005D01*
X26284Y-34963D01*
X26256Y-34935D01*
X26227Y-34921D01*
X26171Y-34907D01*
X26129Y-34907D01*
X26073Y-34921D01*
X26045Y-34935D01*
X26017Y-34963D01*
X26003Y-35005D01*
X26003Y-35033D01*
X26017Y-35075D01*
X26031Y-35089D01*
X26298Y-35370D02*
X26298Y-35202D01*
X26298Y-35286D02*
X26003Y-35286D01*
X26045Y-35258D01*
X26073Y-35230D01*
X26087Y-35202D01*
X27084Y-33832D02*
X27098Y-33874D01*
X27098Y-33945D01*
X27084Y-33973D01*
X27070Y-33987D01*
X27041Y-34001D01*
X27013Y-34001D01*
X26985Y-33987D01*
X26971Y-33973D01*
X26957Y-33945D01*
X26943Y-33888D01*
X26929Y-33860D01*
X26915Y-33846D01*
X26887Y-33832D01*
X26859Y-33832D01*
X26831Y-33846D01*
X26817Y-33860D01*
X26803Y-33888D01*
X26803Y-33959D01*
X26817Y-34001D01*
X27098Y-34127D02*
X26803Y-34127D01*
X27098Y-34296D01*
X26803Y-34296D01*
X26803Y-34408D02*
X26803Y-34605D01*
X27098Y-34478D01*
X26803Y-34858D02*
X26803Y-34717D01*
X26943Y-34703D01*
X26929Y-34717D01*
X26915Y-34745D01*
X26915Y-34816D01*
X26929Y-34844D01*
X26943Y-34858D01*
X26971Y-34872D01*
X27041Y-34872D01*
X27070Y-34858D01*
X27084Y-34844D01*
X27098Y-34816D01*
X27098Y-34745D01*
X27084Y-34717D01*
X27070Y-34703D01*
X27098Y-35153D02*
X27098Y-34984D01*
X27098Y-35068D02*
X26803Y-35068D01*
X26845Y-35040D01*
X26873Y-35012D01*
X26887Y-34984D01*
X26803Y-35251D02*
X26803Y-35448D01*
X27098Y-35321D01*
X26803Y-35686D02*
X26803Y-35630D01*
X26817Y-35602D01*
X26831Y-35588D01*
X26873Y-35560D01*
X26929Y-35546D01*
X27041Y-35546D01*
X27070Y-35560D01*
X27084Y-35574D01*
X27098Y-35602D01*
X27098Y-35658D01*
X27084Y-35686D01*
X27070Y-35701D01*
X27041Y-35715D01*
X26971Y-35715D01*
X26943Y-35701D01*
X26929Y-35686D01*
X26915Y-35658D01*
X26915Y-35602D01*
X26929Y-35574D01*
X26943Y-35560D01*
X26971Y-35546D01*
X26943Y-35939D02*
X26957Y-35981D01*
X26971Y-35996D01*
X26999Y-36010D01*
X27041Y-36010D01*
X27070Y-35996D01*
X27084Y-35981D01*
X27098Y-35953D01*
X27098Y-35841D01*
X26803Y-35841D01*
X26803Y-35939D01*
X26817Y-35967D01*
X26831Y-35981D01*
X26859Y-35996D01*
X26887Y-35996D01*
X26915Y-35981D01*
X26929Y-35967D01*
X26943Y-35939D01*
X26943Y-35841D01*
X27098Y-36136D02*
X26803Y-36136D01*
X26803Y-36206D01*
X26817Y-36248D01*
X26845Y-36276D01*
X26873Y-36291D01*
X26929Y-36305D01*
X26971Y-36305D01*
X27027Y-36291D01*
X27056Y-36276D01*
X27084Y-36248D01*
X27098Y-36206D01*
X27098Y-36136D01*
G54D12*
X28300Y-19440D02*
X28300Y-19140D01*
X28228Y-19140D01*
X28185Y-19154D01*
X28157Y-19183D01*
X28143Y-19211D01*
X28128Y-19268D01*
X28128Y-19311D01*
X28143Y-19368D01*
X28157Y-19397D01*
X28185Y-19426D01*
X28228Y-19440D01*
X28300Y-19440D01*
X27871Y-19240D02*
X27871Y-19440D01*
X27943Y-19126D02*
X28014Y-19340D01*
X27828Y-19340D01*
X28300Y-21440D02*
X28300Y-21140D01*
X28228Y-21140D01*
X28185Y-21154D01*
X28157Y-21183D01*
X28143Y-21211D01*
X28128Y-21268D01*
X28128Y-21311D01*
X28143Y-21368D01*
X28157Y-21397D01*
X28185Y-21426D01*
X28228Y-21440D01*
X28300Y-21440D01*
X28028Y-21140D02*
X27843Y-21140D01*
X27943Y-21254D01*
X27900Y-21254D01*
X27871Y-21268D01*
X27857Y-21283D01*
X27843Y-21311D01*
X27843Y-21383D01*
X27857Y-21411D01*
X27871Y-21426D01*
X27900Y-21440D01*
X27985Y-21440D01*
X28014Y-21426D01*
X28028Y-21411D01*
X28300Y-23440D02*
X28300Y-23140D01*
X28228Y-23140D01*
X28185Y-23154D01*
X28157Y-23183D01*
X28143Y-23211D01*
X28128Y-23268D01*
X28128Y-23311D01*
X28143Y-23368D01*
X28157Y-23397D01*
X28185Y-23426D01*
X28228Y-23440D01*
X28300Y-23440D01*
X28014Y-23168D02*
X28000Y-23154D01*
X27971Y-23140D01*
X27900Y-23140D01*
X27871Y-23154D01*
X27857Y-23168D01*
X27843Y-23197D01*
X27843Y-23226D01*
X27857Y-23268D01*
X28028Y-23440D01*
X27843Y-23440D01*
X28300Y-13440D02*
X28300Y-13140D01*
X28228Y-13140D01*
X28185Y-13154D01*
X28157Y-13183D01*
X28143Y-13211D01*
X28128Y-13268D01*
X28128Y-13311D01*
X28143Y-13368D01*
X28157Y-13397D01*
X28185Y-13426D01*
X28228Y-13440D01*
X28300Y-13440D01*
X28028Y-13140D02*
X27828Y-13140D01*
X27957Y-13440D01*
X28300Y-17440D02*
X28300Y-17140D01*
X28228Y-17140D01*
X28185Y-17154D01*
X28157Y-17183D01*
X28143Y-17211D01*
X28128Y-17268D01*
X28128Y-17311D01*
X28143Y-17368D01*
X28157Y-17397D01*
X28185Y-17426D01*
X28228Y-17440D01*
X28300Y-17440D01*
X27857Y-17140D02*
X28000Y-17140D01*
X28014Y-17283D01*
X28000Y-17268D01*
X27971Y-17254D01*
X27900Y-17254D01*
X27871Y-17268D01*
X27857Y-17283D01*
X27843Y-17311D01*
X27843Y-17383D01*
X27857Y-17411D01*
X27871Y-17426D01*
X27900Y-17440D01*
X27971Y-17440D01*
X28000Y-17426D01*
X28014Y-17411D01*
X28300Y-15440D02*
X28300Y-15140D01*
X28228Y-15140D01*
X28185Y-15154D01*
X28157Y-15183D01*
X28143Y-15211D01*
X28128Y-15268D01*
X28128Y-15311D01*
X28143Y-15368D01*
X28157Y-15397D01*
X28185Y-15426D01*
X28228Y-15440D01*
X28300Y-15440D01*
X27871Y-15140D02*
X27928Y-15140D01*
X27957Y-15154D01*
X27971Y-15168D01*
X28000Y-15211D01*
X28014Y-15268D01*
X28014Y-15383D01*
X28000Y-15411D01*
X27985Y-15426D01*
X27957Y-15440D01*
X27900Y-15440D01*
X27871Y-15426D01*
X27857Y-15411D01*
X27843Y-15383D01*
X27843Y-15311D01*
X27857Y-15283D01*
X27871Y-15268D01*
X27900Y-15254D01*
X27957Y-15254D01*
X27985Y-15268D01*
X28000Y-15283D01*
X28014Y-15311D01*
X28300Y-27440D02*
X28300Y-27140D01*
X28228Y-27140D01*
X28185Y-27154D01*
X28157Y-27183D01*
X28143Y-27211D01*
X28128Y-27268D01*
X28128Y-27311D01*
X28143Y-27368D01*
X28157Y-27397D01*
X28185Y-27426D01*
X28228Y-27440D01*
X28300Y-27440D01*
X27957Y-27268D02*
X27985Y-27254D01*
X28000Y-27240D01*
X28014Y-27211D01*
X28014Y-27197D01*
X28000Y-27168D01*
X27985Y-27154D01*
X27957Y-27140D01*
X27900Y-27140D01*
X27871Y-27154D01*
X27857Y-27168D01*
X27843Y-27197D01*
X27843Y-27211D01*
X27857Y-27240D01*
X27871Y-27254D01*
X27900Y-27268D01*
X27957Y-27268D01*
X27985Y-27283D01*
X28000Y-27297D01*
X28014Y-27326D01*
X28014Y-27383D01*
X28000Y-27411D01*
X27985Y-27426D01*
X27957Y-27440D01*
X27900Y-27440D01*
X27871Y-27426D01*
X27857Y-27411D01*
X27843Y-27383D01*
X27843Y-27326D01*
X27857Y-27297D01*
X27871Y-27283D01*
X27900Y-27268D01*
X25121Y-56385D02*
X24821Y-56385D01*
X24821Y-56457D01*
X24835Y-56500D01*
X24864Y-56528D01*
X24892Y-56542D01*
X24950Y-56557D01*
X24992Y-56557D01*
X25050Y-56542D01*
X25078Y-56528D01*
X25107Y-56500D01*
X25121Y-56457D01*
X25121Y-56385D01*
X25121Y-56842D02*
X25121Y-56671D01*
X25121Y-56757D02*
X24821Y-56757D01*
X24864Y-56728D01*
X24892Y-56700D01*
X24907Y-56671D01*
X25121Y-57128D02*
X25121Y-56957D01*
X25121Y-57042D02*
X24821Y-57042D01*
X24864Y-57014D01*
X24892Y-56985D01*
X24907Y-56957D01*
X28300Y-25440D02*
X28300Y-25140D01*
X28228Y-25140D01*
X28185Y-25154D01*
X28157Y-25183D01*
X28143Y-25211D01*
X28128Y-25268D01*
X28128Y-25311D01*
X28143Y-25368D01*
X28157Y-25397D01*
X28185Y-25426D01*
X28228Y-25440D01*
X28300Y-25440D01*
X27985Y-25440D02*
X27928Y-25440D01*
X27900Y-25426D01*
X27885Y-25411D01*
X27857Y-25368D01*
X27843Y-25311D01*
X27843Y-25197D01*
X27857Y-25168D01*
X27871Y-25154D01*
X27900Y-25140D01*
X27957Y-25140D01*
X27985Y-25154D01*
X28000Y-25168D01*
X28014Y-25197D01*
X28014Y-25268D01*
X28000Y-25297D01*
X27985Y-25311D01*
X27957Y-25326D01*
X27900Y-25326D01*
X27871Y-25311D01*
X27857Y-25297D01*
X27843Y-25268D01*
X27450Y-30347D02*
X27150Y-30347D01*
X27150Y-30418D01*
X27164Y-30461D01*
X27193Y-30490D01*
X27221Y-30504D01*
X27278Y-30518D01*
X27321Y-30518D01*
X27378Y-30504D01*
X27407Y-30490D01*
X27435Y-30461D01*
X27450Y-30418D01*
X27450Y-30347D01*
X27450Y-30804D02*
X27450Y-30633D01*
X27450Y-30718D02*
X27150Y-30718D01*
X27193Y-30690D01*
X27221Y-30661D01*
X27235Y-30633D01*
X29621Y-57635D02*
X29321Y-57635D01*
X29321Y-57707D01*
X29335Y-57750D01*
X29364Y-57778D01*
X29392Y-57792D01*
X29450Y-57807D01*
X29492Y-57807D01*
X29550Y-57792D01*
X29578Y-57778D01*
X29607Y-57750D01*
X29621Y-57707D01*
X29621Y-57635D01*
X29621Y-58092D02*
X29621Y-57921D01*
X29621Y-58007D02*
X29321Y-58007D01*
X29364Y-57978D01*
X29392Y-57950D01*
X29407Y-57921D01*
X29321Y-58278D02*
X29321Y-58307D01*
X29335Y-58335D01*
X29350Y-58350D01*
X29378Y-58364D01*
X29435Y-58378D01*
X29507Y-58378D01*
X29564Y-58364D01*
X29592Y-58350D01*
X29607Y-58335D01*
X29621Y-58307D01*
X29621Y-58278D01*
X29607Y-58250D01*
X29592Y-58235D01*
X29564Y-58221D01*
X29507Y-58207D01*
X29435Y-58207D01*
X29378Y-58221D01*
X29350Y-58235D01*
X29335Y-58250D01*
X29321Y-58278D01*
G54D16*
X23185Y-52373D02*
X23195Y-52363D01*
X23204Y-52335D01*
X23204Y-52317D01*
X23195Y-52288D01*
X23176Y-52270D01*
X23157Y-52260D01*
X23120Y-52251D01*
X23092Y-52251D01*
X23054Y-52260D01*
X23035Y-52270D01*
X23017Y-52288D01*
X23007Y-52317D01*
X23007Y-52335D01*
X23017Y-52363D01*
X23026Y-52373D01*
X23026Y-52448D02*
X23017Y-52457D01*
X23007Y-52476D01*
X23007Y-52523D01*
X23017Y-52542D01*
X23026Y-52551D01*
X23045Y-52560D01*
X23064Y-52560D01*
X23092Y-52551D01*
X23204Y-52439D01*
X23204Y-52560D01*
X23026Y-52636D02*
X23017Y-52645D01*
X23007Y-52664D01*
X23007Y-52711D01*
X23017Y-52729D01*
X23026Y-52739D01*
X23045Y-52748D01*
X23064Y-52748D01*
X23092Y-52739D01*
X23204Y-52626D01*
X23204Y-52748D01*
X23479Y-52195D02*
X23479Y-52082D01*
X23479Y-52138D02*
X23282Y-52138D01*
X23310Y-52120D01*
X23329Y-52101D01*
X23339Y-52082D01*
X23282Y-52317D02*
X23282Y-52335D01*
X23292Y-52354D01*
X23301Y-52363D01*
X23320Y-52373D01*
X23357Y-52382D01*
X23404Y-52382D01*
X23442Y-52373D01*
X23460Y-52363D01*
X23470Y-52354D01*
X23479Y-52335D01*
X23479Y-52317D01*
X23470Y-52298D01*
X23460Y-52288D01*
X23442Y-52279D01*
X23404Y-52270D01*
X23357Y-52270D01*
X23320Y-52279D01*
X23301Y-52288D01*
X23292Y-52298D01*
X23282Y-52317D01*
X23282Y-52504D02*
X23282Y-52523D01*
X23292Y-52542D01*
X23301Y-52551D01*
X23320Y-52560D01*
X23357Y-52570D01*
X23404Y-52570D01*
X23442Y-52560D01*
X23460Y-52551D01*
X23470Y-52542D01*
X23479Y-52523D01*
X23479Y-52504D01*
X23470Y-52485D01*
X23460Y-52476D01*
X23442Y-52467D01*
X23404Y-52457D01*
X23357Y-52457D01*
X23320Y-52467D01*
X23301Y-52476D01*
X23292Y-52485D01*
X23282Y-52504D01*
X23348Y-52654D02*
X23479Y-52654D01*
X23367Y-52654D02*
X23357Y-52664D01*
X23348Y-52682D01*
X23348Y-52711D01*
X23357Y-52729D01*
X23376Y-52739D01*
X23479Y-52739D01*
X23376Y-52898D02*
X23376Y-52833D01*
X23479Y-52833D02*
X23282Y-52833D01*
X23282Y-52926D01*
X23704Y-42123D02*
X23610Y-42057D01*
X23704Y-42010D02*
X23507Y-42010D01*
X23507Y-42085D01*
X23517Y-42104D01*
X23526Y-42113D01*
X23545Y-42123D01*
X23573Y-42123D01*
X23592Y-42113D01*
X23601Y-42104D01*
X23610Y-42085D01*
X23610Y-42010D01*
X23526Y-42198D02*
X23517Y-42207D01*
X23507Y-42226D01*
X23507Y-42273D01*
X23517Y-42292D01*
X23526Y-42301D01*
X23545Y-42310D01*
X23564Y-42310D01*
X23592Y-42301D01*
X23704Y-42189D01*
X23704Y-42310D01*
X23704Y-42498D02*
X23704Y-42386D01*
X23704Y-42442D02*
X23507Y-42442D01*
X23535Y-42423D01*
X23554Y-42404D01*
X23564Y-42386D01*
X23979Y-42113D02*
X23979Y-42001D01*
X23979Y-42057D02*
X23782Y-42057D01*
X23810Y-42038D01*
X23829Y-42020D01*
X23839Y-42001D01*
X23782Y-42235D02*
X23782Y-42254D01*
X23792Y-42273D01*
X23801Y-42282D01*
X23820Y-42292D01*
X23857Y-42301D01*
X23904Y-42301D01*
X23942Y-42292D01*
X23960Y-42282D01*
X23970Y-42273D01*
X23979Y-42254D01*
X23979Y-42235D01*
X23970Y-42217D01*
X23960Y-42207D01*
X23942Y-42198D01*
X23904Y-42189D01*
X23857Y-42189D01*
X23820Y-42198D01*
X23801Y-42207D01*
X23792Y-42217D01*
X23782Y-42235D01*
X23979Y-42386D02*
X23782Y-42386D01*
X23979Y-42498D02*
X23867Y-42414D01*
X23782Y-42498D02*
X23895Y-42386D01*
X23376Y-40435D02*
X23386Y-40445D01*
X23414Y-40454D01*
X23432Y-40454D01*
X23461Y-40445D01*
X23479Y-40426D01*
X23489Y-40407D01*
X23498Y-40370D01*
X23498Y-40342D01*
X23489Y-40304D01*
X23479Y-40285D01*
X23461Y-40267D01*
X23432Y-40257D01*
X23414Y-40257D01*
X23386Y-40267D01*
X23376Y-40276D01*
X23189Y-40454D02*
X23301Y-40454D01*
X23245Y-40454D02*
X23245Y-40257D01*
X23264Y-40285D01*
X23282Y-40304D01*
X23301Y-40314D01*
X23020Y-40323D02*
X23020Y-40454D01*
X23067Y-40248D02*
X23113Y-40389D01*
X22992Y-40389D01*
X23554Y-40729D02*
X23667Y-40729D01*
X23611Y-40729D02*
X23611Y-40532D01*
X23629Y-40560D01*
X23648Y-40579D01*
X23667Y-40589D01*
X23432Y-40532D02*
X23414Y-40532D01*
X23395Y-40542D01*
X23386Y-40551D01*
X23376Y-40570D01*
X23367Y-40607D01*
X23367Y-40654D01*
X23376Y-40692D01*
X23386Y-40710D01*
X23395Y-40720D01*
X23414Y-40729D01*
X23432Y-40729D01*
X23451Y-40720D01*
X23461Y-40710D01*
X23470Y-40692D01*
X23479Y-40654D01*
X23479Y-40607D01*
X23470Y-40570D01*
X23461Y-40551D01*
X23451Y-40542D01*
X23432Y-40532D01*
X23245Y-40532D02*
X23226Y-40532D01*
X23207Y-40542D01*
X23198Y-40551D01*
X23189Y-40570D01*
X23179Y-40607D01*
X23179Y-40654D01*
X23189Y-40692D01*
X23198Y-40710D01*
X23207Y-40720D01*
X23226Y-40729D01*
X23245Y-40729D01*
X23264Y-40720D01*
X23273Y-40710D01*
X23282Y-40692D01*
X23292Y-40654D01*
X23292Y-40607D01*
X23282Y-40570D01*
X23273Y-40551D01*
X23264Y-40542D01*
X23245Y-40532D01*
X23095Y-40598D02*
X23095Y-40729D01*
X23095Y-40617D02*
X23085Y-40607D01*
X23067Y-40598D01*
X23038Y-40598D01*
X23020Y-40607D01*
X23010Y-40626D01*
X23010Y-40729D01*
X22851Y-40626D02*
X22916Y-40626D01*
X22916Y-40729D02*
X22916Y-40532D01*
X22823Y-40532D01*
X26955Y-32773D02*
X27021Y-32679D01*
X27067Y-32773D02*
X27067Y-32576D01*
X26992Y-32576D01*
X26974Y-32586D01*
X26964Y-32595D01*
X26955Y-32614D01*
X26955Y-32642D01*
X26964Y-32661D01*
X26974Y-32670D01*
X26992Y-32679D01*
X27067Y-32679D01*
X26880Y-32595D02*
X26870Y-32586D01*
X26852Y-32576D01*
X26805Y-32576D01*
X26786Y-32586D01*
X26777Y-32595D01*
X26767Y-32614D01*
X26767Y-32632D01*
X26777Y-32661D01*
X26889Y-32773D01*
X26767Y-32773D01*
X26598Y-32642D02*
X26598Y-32773D01*
X26645Y-32567D02*
X26692Y-32707D01*
X26570Y-32707D01*
X26960Y-32498D02*
X27072Y-32498D01*
X27016Y-32498D02*
X27016Y-32301D01*
X27035Y-32329D01*
X27053Y-32348D01*
X27072Y-32357D01*
X26885Y-32320D02*
X26875Y-32311D01*
X26856Y-32301D01*
X26809Y-32301D01*
X26791Y-32311D01*
X26781Y-32320D01*
X26772Y-32339D01*
X26772Y-32357D01*
X26781Y-32386D01*
X26894Y-32498D01*
X26772Y-32498D01*
X26650Y-32301D02*
X26631Y-32301D01*
X26612Y-32311D01*
X26603Y-32320D01*
X26594Y-32339D01*
X26584Y-32376D01*
X26584Y-32423D01*
X26594Y-32461D01*
X26603Y-32479D01*
X26612Y-32489D01*
X26631Y-32498D01*
X26650Y-32498D01*
X26669Y-32489D01*
X26678Y-32479D01*
X26688Y-32461D01*
X26697Y-32423D01*
X26697Y-32376D01*
X26688Y-32339D01*
X26678Y-32320D01*
X26669Y-32311D01*
X26650Y-32301D01*
X22935Y-42123D02*
X22945Y-42113D01*
X22954Y-42085D01*
X22954Y-42067D01*
X22945Y-42038D01*
X22926Y-42020D01*
X22907Y-42010D01*
X22870Y-42001D01*
X22842Y-42001D01*
X22804Y-42010D01*
X22785Y-42020D01*
X22767Y-42038D01*
X22757Y-42067D01*
X22757Y-42085D01*
X22767Y-42113D01*
X22776Y-42123D01*
X22954Y-42310D02*
X22954Y-42198D01*
X22954Y-42254D02*
X22757Y-42254D01*
X22785Y-42235D01*
X22804Y-42217D01*
X22814Y-42198D01*
X22757Y-42489D02*
X22757Y-42395D01*
X22851Y-42386D01*
X22842Y-42395D01*
X22832Y-42414D01*
X22832Y-42461D01*
X22842Y-42479D01*
X22851Y-42489D01*
X22870Y-42498D01*
X22917Y-42498D01*
X22935Y-42489D01*
X22945Y-42479D01*
X22954Y-42461D01*
X22954Y-42414D01*
X22945Y-42395D01*
X22935Y-42386D01*
X22679Y-41945D02*
X22679Y-41832D01*
X22679Y-41888D02*
X22482Y-41888D01*
X22510Y-41870D01*
X22529Y-41851D01*
X22539Y-41832D01*
X22482Y-42067D02*
X22482Y-42085D01*
X22492Y-42104D01*
X22501Y-42113D01*
X22520Y-42123D01*
X22557Y-42132D01*
X22604Y-42132D01*
X22642Y-42123D01*
X22660Y-42113D01*
X22670Y-42104D01*
X22679Y-42085D01*
X22679Y-42067D01*
X22670Y-42048D01*
X22660Y-42038D01*
X22642Y-42029D01*
X22604Y-42020D01*
X22557Y-42020D01*
X22520Y-42029D01*
X22501Y-42038D01*
X22492Y-42048D01*
X22482Y-42067D01*
X22482Y-42254D02*
X22482Y-42273D01*
X22492Y-42292D01*
X22501Y-42301D01*
X22520Y-42310D01*
X22557Y-42320D01*
X22604Y-42320D01*
X22642Y-42310D01*
X22660Y-42301D01*
X22670Y-42292D01*
X22679Y-42273D01*
X22679Y-42254D01*
X22670Y-42235D01*
X22660Y-42226D01*
X22642Y-42217D01*
X22604Y-42207D01*
X22557Y-42207D01*
X22520Y-42217D01*
X22501Y-42226D01*
X22492Y-42235D01*
X22482Y-42254D01*
X22548Y-42404D02*
X22679Y-42404D01*
X22567Y-42404D02*
X22557Y-42414D01*
X22548Y-42432D01*
X22548Y-42461D01*
X22557Y-42479D01*
X22576Y-42489D01*
X22679Y-42489D01*
X22576Y-42648D02*
X22576Y-42583D01*
X22679Y-42583D02*
X22482Y-42583D01*
X22482Y-42676D01*
X29626Y-49685D02*
X29636Y-49695D01*
X29664Y-49704D01*
X29682Y-49704D01*
X29711Y-49695D01*
X29729Y-49676D01*
X29739Y-49657D01*
X29748Y-49620D01*
X29748Y-49592D01*
X29739Y-49554D01*
X29729Y-49535D01*
X29711Y-49517D01*
X29682Y-49507D01*
X29664Y-49507D01*
X29636Y-49517D01*
X29626Y-49526D01*
X29439Y-49704D02*
X29551Y-49704D01*
X29495Y-49704D02*
X29495Y-49507D01*
X29514Y-49535D01*
X29532Y-49554D01*
X29551Y-49564D01*
X29270Y-49507D02*
X29307Y-49507D01*
X29326Y-49517D01*
X29335Y-49526D01*
X29354Y-49554D01*
X29363Y-49592D01*
X29363Y-49667D01*
X29354Y-49685D01*
X29345Y-49695D01*
X29326Y-49704D01*
X29288Y-49704D01*
X29270Y-49695D01*
X29260Y-49685D01*
X29251Y-49667D01*
X29251Y-49620D01*
X29260Y-49601D01*
X29270Y-49592D01*
X29288Y-49582D01*
X29326Y-49582D01*
X29345Y-49592D01*
X29354Y-49601D01*
X29363Y-49620D01*
X29823Y-49251D02*
X29814Y-49242D01*
X29795Y-49232D01*
X29748Y-49232D01*
X29729Y-49242D01*
X29720Y-49251D01*
X29711Y-49270D01*
X29711Y-49289D01*
X29720Y-49317D01*
X29833Y-49429D01*
X29711Y-49429D01*
X29589Y-49232D02*
X29570Y-49232D01*
X29551Y-49242D01*
X29542Y-49251D01*
X29532Y-49270D01*
X29523Y-49307D01*
X29523Y-49354D01*
X29532Y-49392D01*
X29542Y-49410D01*
X29551Y-49420D01*
X29570Y-49429D01*
X29589Y-49429D01*
X29607Y-49420D01*
X29617Y-49410D01*
X29626Y-49392D01*
X29636Y-49354D01*
X29636Y-49307D01*
X29626Y-49270D01*
X29617Y-49251D01*
X29607Y-49242D01*
X29589Y-49232D01*
X29439Y-49298D02*
X29439Y-49495D01*
X29439Y-49307D02*
X29420Y-49298D01*
X29382Y-49298D01*
X29363Y-49307D01*
X29354Y-49317D01*
X29345Y-49335D01*
X29345Y-49392D01*
X29354Y-49410D01*
X29363Y-49420D01*
X29382Y-49429D01*
X29420Y-49429D01*
X29439Y-49420D01*
X29195Y-49326D02*
X29260Y-49326D01*
X29260Y-49429D02*
X29260Y-49232D01*
X29166Y-49232D01*
X23935Y-55623D02*
X23945Y-55613D01*
X23954Y-55585D01*
X23954Y-55567D01*
X23945Y-55538D01*
X23926Y-55520D01*
X23907Y-55510D01*
X23870Y-55501D01*
X23842Y-55501D01*
X23804Y-55510D01*
X23785Y-55520D01*
X23767Y-55538D01*
X23757Y-55567D01*
X23757Y-55585D01*
X23767Y-55613D01*
X23776Y-55623D01*
X23954Y-55810D02*
X23954Y-55698D01*
X23954Y-55754D02*
X23757Y-55754D01*
X23785Y-55735D01*
X23804Y-55717D01*
X23814Y-55698D01*
X23757Y-55876D02*
X23757Y-55998D01*
X23832Y-55932D01*
X23832Y-55961D01*
X23842Y-55979D01*
X23851Y-55989D01*
X23870Y-55998D01*
X23917Y-55998D01*
X23935Y-55989D01*
X23945Y-55979D01*
X23954Y-55961D01*
X23954Y-55904D01*
X23945Y-55886D01*
X23935Y-55876D01*
X23679Y-55445D02*
X23679Y-55332D01*
X23679Y-55388D02*
X23482Y-55388D01*
X23510Y-55370D01*
X23529Y-55351D01*
X23539Y-55332D01*
X23482Y-55567D02*
X23482Y-55585D01*
X23492Y-55604D01*
X23501Y-55613D01*
X23520Y-55623D01*
X23557Y-55632D01*
X23604Y-55632D01*
X23642Y-55623D01*
X23660Y-55613D01*
X23670Y-55604D01*
X23679Y-55585D01*
X23679Y-55567D01*
X23670Y-55548D01*
X23660Y-55538D01*
X23642Y-55529D01*
X23604Y-55520D01*
X23557Y-55520D01*
X23520Y-55529D01*
X23501Y-55538D01*
X23492Y-55548D01*
X23482Y-55567D01*
X23482Y-55754D02*
X23482Y-55773D01*
X23492Y-55792D01*
X23501Y-55801D01*
X23520Y-55810D01*
X23557Y-55820D01*
X23604Y-55820D01*
X23642Y-55810D01*
X23660Y-55801D01*
X23670Y-55792D01*
X23679Y-55773D01*
X23679Y-55754D01*
X23670Y-55735D01*
X23660Y-55726D01*
X23642Y-55717D01*
X23604Y-55707D01*
X23557Y-55707D01*
X23520Y-55717D01*
X23501Y-55726D01*
X23492Y-55735D01*
X23482Y-55754D01*
X23548Y-55904D02*
X23679Y-55904D01*
X23567Y-55904D02*
X23557Y-55914D01*
X23548Y-55932D01*
X23548Y-55961D01*
X23557Y-55979D01*
X23576Y-55989D01*
X23679Y-55989D01*
X23576Y-56148D02*
X23576Y-56083D01*
X23679Y-56083D02*
X23482Y-56083D01*
X23482Y-56176D01*
X30935Y-56873D02*
X30945Y-56863D01*
X30954Y-56835D01*
X30954Y-56817D01*
X30945Y-56788D01*
X30926Y-56770D01*
X30907Y-56760D01*
X30870Y-56751D01*
X30842Y-56751D01*
X30804Y-56760D01*
X30785Y-56770D01*
X30767Y-56788D01*
X30757Y-56817D01*
X30757Y-56835D01*
X30767Y-56863D01*
X30776Y-56873D01*
X30954Y-57060D02*
X30954Y-56948D01*
X30954Y-57004D02*
X30757Y-57004D01*
X30785Y-56985D01*
X30804Y-56967D01*
X30814Y-56948D01*
X30776Y-57136D02*
X30767Y-57145D01*
X30757Y-57164D01*
X30757Y-57211D01*
X30767Y-57229D01*
X30776Y-57239D01*
X30795Y-57248D01*
X30814Y-57248D01*
X30842Y-57239D01*
X30954Y-57126D01*
X30954Y-57248D01*
X30679Y-56695D02*
X30679Y-56582D01*
X30679Y-56638D02*
X30482Y-56638D01*
X30510Y-56620D01*
X30529Y-56601D01*
X30539Y-56582D01*
X30482Y-56817D02*
X30482Y-56835D01*
X30492Y-56854D01*
X30501Y-56863D01*
X30520Y-56873D01*
X30557Y-56882D01*
X30604Y-56882D01*
X30642Y-56873D01*
X30660Y-56863D01*
X30670Y-56854D01*
X30679Y-56835D01*
X30679Y-56817D01*
X30670Y-56798D01*
X30660Y-56788D01*
X30642Y-56779D01*
X30604Y-56770D01*
X30557Y-56770D01*
X30520Y-56779D01*
X30501Y-56788D01*
X30492Y-56798D01*
X30482Y-56817D01*
X30482Y-57004D02*
X30482Y-57023D01*
X30492Y-57042D01*
X30501Y-57051D01*
X30520Y-57060D01*
X30557Y-57070D01*
X30604Y-57070D01*
X30642Y-57060D01*
X30660Y-57051D01*
X30670Y-57042D01*
X30679Y-57023D01*
X30679Y-57004D01*
X30670Y-56985D01*
X30660Y-56976D01*
X30642Y-56967D01*
X30604Y-56957D01*
X30557Y-56957D01*
X30520Y-56967D01*
X30501Y-56976D01*
X30492Y-56985D01*
X30482Y-57004D01*
X30548Y-57154D02*
X30679Y-57154D01*
X30567Y-57154D02*
X30557Y-57164D01*
X30548Y-57182D01*
X30548Y-57211D01*
X30557Y-57229D01*
X30576Y-57239D01*
X30679Y-57239D01*
X30576Y-57398D02*
X30576Y-57333D01*
X30679Y-57333D02*
X30482Y-57333D01*
X30482Y-57426D01*
X24557Y-48514D02*
X24567Y-48524D01*
X24595Y-48533D01*
X24614Y-48533D01*
X24642Y-48524D01*
X24660Y-48505D01*
X24670Y-48486D01*
X24679Y-48449D01*
X24679Y-48420D01*
X24670Y-48383D01*
X24660Y-48364D01*
X24642Y-48345D01*
X24614Y-48336D01*
X24595Y-48336D01*
X24567Y-48345D01*
X24557Y-48355D01*
X24370Y-48533D02*
X24482Y-48533D01*
X24426Y-48533D02*
X24426Y-48336D01*
X24445Y-48364D01*
X24463Y-48383D01*
X24482Y-48392D01*
X24248Y-48336D02*
X24229Y-48336D01*
X24210Y-48345D01*
X24201Y-48355D01*
X24191Y-48374D01*
X24182Y-48411D01*
X24182Y-48458D01*
X24191Y-48495D01*
X24201Y-48514D01*
X24210Y-48524D01*
X24229Y-48533D01*
X24248Y-48533D01*
X24266Y-48524D01*
X24276Y-48514D01*
X24285Y-48495D01*
X24295Y-48458D01*
X24295Y-48411D01*
X24285Y-48374D01*
X24276Y-48355D01*
X24266Y-48345D01*
X24248Y-48336D01*
X24735Y-48258D02*
X24848Y-48258D01*
X24792Y-48258D02*
X24792Y-48061D01*
X24811Y-48089D01*
X24829Y-48108D01*
X24848Y-48117D01*
X24614Y-48061D02*
X24595Y-48061D01*
X24576Y-48070D01*
X24567Y-48080D01*
X24557Y-48099D01*
X24548Y-48136D01*
X24548Y-48183D01*
X24557Y-48220D01*
X24567Y-48239D01*
X24576Y-48249D01*
X24595Y-48258D01*
X24614Y-48258D01*
X24632Y-48249D01*
X24642Y-48239D01*
X24651Y-48220D01*
X24660Y-48183D01*
X24660Y-48136D01*
X24651Y-48099D01*
X24642Y-48080D01*
X24632Y-48070D01*
X24614Y-48061D01*
X24426Y-48061D02*
X24407Y-48061D01*
X24388Y-48070D01*
X24379Y-48080D01*
X24370Y-48099D01*
X24360Y-48136D01*
X24360Y-48183D01*
X24370Y-48220D01*
X24379Y-48239D01*
X24388Y-48249D01*
X24407Y-48258D01*
X24426Y-48258D01*
X24445Y-48249D01*
X24454Y-48239D01*
X24463Y-48220D01*
X24473Y-48183D01*
X24473Y-48136D01*
X24463Y-48099D01*
X24454Y-48080D01*
X24445Y-48070D01*
X24426Y-48061D01*
X24276Y-48127D02*
X24276Y-48258D01*
X24276Y-48145D02*
X24266Y-48136D01*
X24248Y-48127D01*
X24220Y-48127D01*
X24201Y-48136D01*
X24191Y-48155D01*
X24191Y-48258D01*
X24032Y-48155D02*
X24098Y-48155D01*
X24098Y-48258D02*
X24098Y-48061D01*
X24004Y-48061D01*
X24463Y-47764D02*
X24473Y-47774D01*
X24501Y-47783D01*
X24520Y-47783D01*
X24548Y-47774D01*
X24567Y-47755D01*
X24576Y-47736D01*
X24585Y-47699D01*
X24585Y-47670D01*
X24576Y-47633D01*
X24567Y-47614D01*
X24548Y-47595D01*
X24520Y-47586D01*
X24501Y-47586D01*
X24473Y-47595D01*
X24463Y-47605D01*
X24276Y-47783D02*
X24388Y-47783D01*
X24332Y-47783D02*
X24332Y-47586D01*
X24351Y-47614D01*
X24370Y-47633D01*
X24388Y-47642D01*
X24642Y-47508D02*
X24754Y-47508D01*
X24698Y-47508D02*
X24698Y-47311D01*
X24717Y-47339D01*
X24735Y-47358D01*
X24754Y-47367D01*
X24520Y-47311D02*
X24501Y-47311D01*
X24482Y-47320D01*
X24473Y-47330D01*
X24463Y-47349D01*
X24454Y-47386D01*
X24454Y-47433D01*
X24463Y-47470D01*
X24473Y-47489D01*
X24482Y-47499D01*
X24501Y-47508D01*
X24520Y-47508D01*
X24538Y-47499D01*
X24548Y-47489D01*
X24557Y-47470D01*
X24567Y-47433D01*
X24567Y-47386D01*
X24557Y-47349D01*
X24548Y-47330D01*
X24538Y-47320D01*
X24520Y-47311D01*
X24370Y-47377D02*
X24370Y-47508D01*
X24370Y-47395D02*
X24360Y-47386D01*
X24341Y-47377D01*
X24313Y-47377D01*
X24295Y-47386D01*
X24285Y-47405D01*
X24285Y-47508D01*
X24126Y-47405D02*
X24191Y-47405D01*
X24191Y-47508D02*
X24191Y-47311D01*
X24098Y-47311D01*
X26705Y-37254D02*
X26714Y-37264D01*
X26742Y-37273D01*
X26761Y-37273D01*
X26789Y-37264D01*
X26808Y-37245D01*
X26817Y-37226D01*
X26827Y-37189D01*
X26827Y-37161D01*
X26817Y-37123D01*
X26808Y-37104D01*
X26789Y-37086D01*
X26761Y-37076D01*
X26742Y-37076D01*
X26714Y-37086D01*
X26705Y-37095D01*
X26517Y-37273D02*
X26630Y-37273D01*
X26574Y-37273D02*
X26574Y-37076D01*
X26592Y-37104D01*
X26611Y-37123D01*
X26630Y-37132D01*
X26423Y-37273D02*
X26386Y-37273D01*
X26367Y-37264D01*
X26358Y-37254D01*
X26339Y-37226D01*
X26330Y-37189D01*
X26330Y-37114D01*
X26339Y-37095D01*
X26348Y-37086D01*
X26367Y-37076D01*
X26405Y-37076D01*
X26423Y-37086D01*
X26433Y-37095D01*
X26442Y-37114D01*
X26442Y-37161D01*
X26433Y-37179D01*
X26423Y-37189D01*
X26405Y-37198D01*
X26367Y-37198D01*
X26348Y-37189D01*
X26339Y-37179D01*
X26330Y-37161D01*
X26883Y-37548D02*
X26996Y-37548D01*
X26939Y-37548D02*
X26939Y-37351D01*
X26958Y-37379D01*
X26977Y-37398D01*
X26996Y-37407D01*
X26761Y-37351D02*
X26742Y-37351D01*
X26724Y-37361D01*
X26714Y-37370D01*
X26705Y-37389D01*
X26696Y-37426D01*
X26696Y-37473D01*
X26705Y-37511D01*
X26714Y-37529D01*
X26724Y-37539D01*
X26742Y-37548D01*
X26761Y-37548D01*
X26780Y-37539D01*
X26789Y-37529D01*
X26799Y-37511D01*
X26808Y-37473D01*
X26808Y-37426D01*
X26799Y-37389D01*
X26789Y-37370D01*
X26780Y-37361D01*
X26761Y-37351D01*
X26574Y-37351D02*
X26555Y-37351D01*
X26536Y-37361D01*
X26527Y-37370D01*
X26517Y-37389D01*
X26508Y-37426D01*
X26508Y-37473D01*
X26517Y-37511D01*
X26527Y-37529D01*
X26536Y-37539D01*
X26555Y-37548D01*
X26574Y-37548D01*
X26592Y-37539D01*
X26602Y-37529D01*
X26611Y-37511D01*
X26620Y-37473D01*
X26620Y-37426D01*
X26611Y-37389D01*
X26602Y-37370D01*
X26592Y-37361D01*
X26574Y-37351D01*
X26423Y-37417D02*
X26423Y-37548D01*
X26423Y-37436D02*
X26414Y-37426D01*
X26395Y-37417D01*
X26367Y-37417D01*
X26348Y-37426D01*
X26339Y-37445D01*
X26339Y-37548D01*
X26180Y-37445D02*
X26245Y-37445D01*
X26245Y-37548D02*
X26245Y-37351D01*
X26151Y-37351D01*
X26705Y-38004D02*
X26714Y-38014D01*
X26742Y-38023D01*
X26761Y-38023D01*
X26789Y-38014D01*
X26808Y-37995D01*
X26817Y-37976D01*
X26827Y-37939D01*
X26827Y-37911D01*
X26817Y-37873D01*
X26808Y-37854D01*
X26789Y-37836D01*
X26761Y-37826D01*
X26742Y-37826D01*
X26714Y-37836D01*
X26705Y-37845D01*
X26517Y-38023D02*
X26630Y-38023D01*
X26574Y-38023D02*
X26574Y-37826D01*
X26592Y-37854D01*
X26611Y-37873D01*
X26630Y-37882D01*
X26405Y-37911D02*
X26423Y-37901D01*
X26433Y-37892D01*
X26442Y-37873D01*
X26442Y-37864D01*
X26433Y-37845D01*
X26423Y-37836D01*
X26405Y-37826D01*
X26367Y-37826D01*
X26348Y-37836D01*
X26339Y-37845D01*
X26330Y-37864D01*
X26330Y-37873D01*
X26339Y-37892D01*
X26348Y-37901D01*
X26367Y-37911D01*
X26405Y-37911D01*
X26423Y-37920D01*
X26433Y-37929D01*
X26442Y-37948D01*
X26442Y-37986D01*
X26433Y-38004D01*
X26423Y-38014D01*
X26405Y-38023D01*
X26367Y-38023D01*
X26348Y-38014D01*
X26339Y-38004D01*
X26330Y-37986D01*
X26330Y-37948D01*
X26339Y-37929D01*
X26348Y-37920D01*
X26367Y-37911D01*
X26789Y-38298D02*
X26902Y-38298D01*
X26846Y-38298D02*
X26846Y-38101D01*
X26864Y-38129D01*
X26883Y-38148D01*
X26902Y-38157D01*
X26667Y-38101D02*
X26649Y-38101D01*
X26630Y-38111D01*
X26620Y-38120D01*
X26611Y-38139D01*
X26602Y-38176D01*
X26602Y-38223D01*
X26611Y-38261D01*
X26620Y-38279D01*
X26630Y-38289D01*
X26649Y-38298D01*
X26667Y-38298D01*
X26686Y-38289D01*
X26696Y-38279D01*
X26705Y-38261D01*
X26714Y-38223D01*
X26714Y-38176D01*
X26705Y-38139D01*
X26696Y-38120D01*
X26686Y-38111D01*
X26667Y-38101D01*
X26517Y-38167D02*
X26517Y-38298D01*
X26517Y-38186D02*
X26508Y-38176D01*
X26489Y-38167D01*
X26461Y-38167D01*
X26442Y-38176D01*
X26433Y-38195D01*
X26433Y-38298D01*
X26273Y-38195D02*
X26339Y-38195D01*
X26339Y-38298D02*
X26339Y-38101D01*
X26245Y-38101D01*
X23704Y-57373D02*
X23610Y-57307D01*
X23704Y-57260D02*
X23507Y-57260D01*
X23507Y-57335D01*
X23517Y-57354D01*
X23526Y-57363D01*
X23545Y-57373D01*
X23573Y-57373D01*
X23592Y-57363D01*
X23601Y-57354D01*
X23610Y-57335D01*
X23610Y-57260D01*
X23526Y-57448D02*
X23517Y-57457D01*
X23507Y-57476D01*
X23507Y-57523D01*
X23517Y-57542D01*
X23526Y-57551D01*
X23545Y-57560D01*
X23564Y-57560D01*
X23592Y-57551D01*
X23704Y-57439D01*
X23704Y-57560D01*
X23507Y-57682D02*
X23507Y-57701D01*
X23517Y-57720D01*
X23526Y-57729D01*
X23545Y-57739D01*
X23582Y-57748D01*
X23629Y-57748D01*
X23667Y-57739D01*
X23685Y-57729D01*
X23695Y-57720D01*
X23704Y-57701D01*
X23704Y-57682D01*
X23695Y-57664D01*
X23685Y-57654D01*
X23667Y-57645D01*
X23629Y-57636D01*
X23582Y-57636D01*
X23545Y-57645D01*
X23526Y-57654D01*
X23517Y-57664D01*
X23507Y-57682D01*
X23979Y-57363D02*
X23979Y-57251D01*
X23979Y-57307D02*
X23782Y-57307D01*
X23810Y-57288D01*
X23829Y-57270D01*
X23839Y-57251D01*
X23801Y-57439D02*
X23792Y-57448D01*
X23782Y-57467D01*
X23782Y-57514D01*
X23792Y-57532D01*
X23801Y-57542D01*
X23820Y-57551D01*
X23839Y-57551D01*
X23867Y-57542D01*
X23979Y-57429D01*
X23979Y-57551D01*
X23979Y-57636D02*
X23782Y-57636D01*
X23979Y-57748D02*
X23867Y-57664D01*
X23782Y-57748D02*
X23895Y-57636D01*
X30704Y-58623D02*
X30610Y-58557D01*
X30704Y-58510D02*
X30507Y-58510D01*
X30507Y-58585D01*
X30517Y-58604D01*
X30526Y-58613D01*
X30545Y-58623D01*
X30573Y-58623D01*
X30592Y-58613D01*
X30601Y-58604D01*
X30610Y-58585D01*
X30610Y-58510D01*
X30704Y-58810D02*
X30704Y-58698D01*
X30704Y-58754D02*
X30507Y-58754D01*
X30535Y-58735D01*
X30554Y-58717D01*
X30564Y-58698D01*
X30704Y-58904D02*
X30704Y-58942D01*
X30695Y-58961D01*
X30685Y-58970D01*
X30657Y-58989D01*
X30620Y-58998D01*
X30545Y-58998D01*
X30526Y-58989D01*
X30517Y-58979D01*
X30507Y-58961D01*
X30507Y-58923D01*
X30517Y-58904D01*
X30526Y-58895D01*
X30545Y-58886D01*
X30592Y-58886D01*
X30610Y-58895D01*
X30620Y-58904D01*
X30629Y-58923D01*
X30629Y-58961D01*
X30620Y-58979D01*
X30610Y-58989D01*
X30592Y-58998D01*
X30979Y-58613D02*
X30979Y-58501D01*
X30979Y-58557D02*
X30782Y-58557D01*
X30810Y-58538D01*
X30829Y-58520D01*
X30839Y-58501D01*
X30801Y-58689D02*
X30792Y-58698D01*
X30782Y-58717D01*
X30782Y-58764D01*
X30792Y-58782D01*
X30801Y-58792D01*
X30820Y-58801D01*
X30839Y-58801D01*
X30867Y-58792D01*
X30979Y-58679D01*
X30979Y-58801D01*
X30979Y-58886D02*
X30782Y-58886D01*
X30979Y-58998D02*
X30867Y-58914D01*
X30782Y-58998D02*
X30895Y-58886D01*
X25033Y-31286D02*
X24939Y-31220D01*
X25033Y-31173D02*
X24836Y-31173D01*
X24836Y-31248D01*
X24845Y-31267D01*
X24855Y-31276D01*
X24874Y-31286D01*
X24902Y-31286D01*
X24920Y-31276D01*
X24930Y-31267D01*
X24939Y-31248D01*
X24939Y-31173D01*
X25033Y-31473D02*
X25033Y-31361D01*
X25033Y-31417D02*
X24836Y-31417D01*
X24864Y-31398D01*
X24883Y-31379D01*
X24892Y-31361D01*
X24627Y-31164D02*
X24758Y-31164D01*
X24552Y-31117D02*
X24692Y-31070D01*
X24692Y-31192D01*
X24758Y-31267D02*
X24561Y-31267D01*
X24758Y-31379D02*
X24645Y-31295D01*
X24561Y-31379D02*
X24674Y-31267D01*
X24561Y-31445D02*
X24561Y-31576D01*
X24758Y-31492D01*
X26111Y-31273D02*
X26177Y-31179D01*
X26224Y-31273D02*
X26224Y-31076D01*
X26149Y-31076D01*
X26130Y-31086D01*
X26120Y-31095D01*
X26111Y-31114D01*
X26111Y-31142D01*
X26120Y-31161D01*
X26130Y-31170D01*
X26149Y-31179D01*
X26224Y-31179D01*
X26036Y-31095D02*
X26027Y-31086D01*
X26008Y-31076D01*
X25961Y-31076D01*
X25942Y-31086D01*
X25933Y-31095D01*
X25923Y-31114D01*
X25923Y-31132D01*
X25933Y-31161D01*
X26045Y-31273D01*
X25923Y-31273D01*
X26322Y-30820D02*
X26313Y-30811D01*
X26294Y-30801D01*
X26247Y-30801D01*
X26228Y-30811D01*
X26219Y-30820D01*
X26210Y-30839D01*
X26210Y-30857D01*
X26219Y-30886D01*
X26332Y-30998D01*
X26210Y-30998D01*
X26144Y-30801D02*
X26013Y-30801D01*
X26097Y-30998D01*
X25900Y-30801D02*
X25881Y-30801D01*
X25862Y-30811D01*
X25853Y-30820D01*
X25844Y-30839D01*
X25834Y-30876D01*
X25834Y-30923D01*
X25844Y-30961D01*
X25853Y-30979D01*
X25862Y-30989D01*
X25881Y-30998D01*
X25900Y-30998D01*
X25919Y-30989D01*
X25928Y-30979D01*
X25938Y-30961D01*
X25947Y-30923D01*
X25947Y-30876D01*
X25938Y-30839D01*
X25928Y-30820D01*
X25919Y-30811D01*
X25900Y-30801D01*
X33626Y-32704D02*
X33692Y-32610D01*
X33739Y-32704D02*
X33739Y-32507D01*
X33664Y-32507D01*
X33645Y-32517D01*
X33636Y-32526D01*
X33626Y-32545D01*
X33626Y-32573D01*
X33636Y-32592D01*
X33645Y-32601D01*
X33664Y-32610D01*
X33739Y-32610D01*
X33551Y-32526D02*
X33542Y-32517D01*
X33523Y-32507D01*
X33476Y-32507D01*
X33457Y-32517D01*
X33448Y-32526D01*
X33439Y-32545D01*
X33439Y-32564D01*
X33448Y-32592D01*
X33560Y-32704D01*
X33439Y-32704D01*
X33326Y-32592D02*
X33345Y-32582D01*
X33354Y-32573D01*
X33363Y-32554D01*
X33363Y-32545D01*
X33354Y-32526D01*
X33345Y-32517D01*
X33326Y-32507D01*
X33288Y-32507D01*
X33270Y-32517D01*
X33260Y-32526D01*
X33251Y-32545D01*
X33251Y-32554D01*
X33260Y-32573D01*
X33270Y-32582D01*
X33288Y-32592D01*
X33326Y-32592D01*
X33345Y-32601D01*
X33354Y-32610D01*
X33363Y-32629D01*
X33363Y-32667D01*
X33354Y-32685D01*
X33345Y-32695D01*
X33326Y-32704D01*
X33288Y-32704D01*
X33270Y-32695D01*
X33260Y-32685D01*
X33251Y-32667D01*
X33251Y-32629D01*
X33260Y-32610D01*
X33270Y-32601D01*
X33288Y-32592D01*
X33631Y-32429D02*
X33743Y-32429D01*
X33687Y-32429D02*
X33687Y-32232D01*
X33706Y-32260D01*
X33725Y-32279D01*
X33743Y-32289D01*
X33462Y-32232D02*
X33500Y-32232D01*
X33518Y-32242D01*
X33528Y-32251D01*
X33546Y-32279D01*
X33556Y-32317D01*
X33556Y-32392D01*
X33546Y-32410D01*
X33537Y-32420D01*
X33518Y-32429D01*
X33481Y-32429D01*
X33462Y-32420D01*
X33453Y-32410D01*
X33443Y-32392D01*
X33443Y-32345D01*
X33453Y-32326D01*
X33462Y-32317D01*
X33481Y-32307D01*
X33518Y-32307D01*
X33537Y-32317D01*
X33546Y-32326D01*
X33556Y-32345D01*
X33321Y-32232D02*
X33303Y-32232D01*
X33284Y-32242D01*
X33274Y-32251D01*
X33265Y-32270D01*
X33256Y-32307D01*
X33256Y-32354D01*
X33265Y-32392D01*
X33274Y-32410D01*
X33284Y-32420D01*
X33303Y-32429D01*
X33321Y-32429D01*
X33340Y-32420D01*
X33349Y-32410D01*
X33359Y-32392D01*
X33368Y-32354D01*
X33368Y-32307D01*
X33359Y-32270D01*
X33349Y-32251D01*
X33340Y-32242D01*
X33321Y-32232D01*
X25033Y-17286D02*
X24939Y-17220D01*
X25033Y-17173D02*
X24836Y-17173D01*
X24836Y-17248D01*
X24845Y-17267D01*
X24855Y-17276D01*
X24874Y-17286D01*
X24902Y-17286D01*
X24920Y-17276D01*
X24930Y-17267D01*
X24939Y-17248D01*
X24939Y-17173D01*
X24836Y-17454D02*
X24836Y-17417D01*
X24845Y-17398D01*
X24855Y-17389D01*
X24883Y-17370D01*
X24920Y-17361D01*
X24995Y-17361D01*
X25014Y-17370D01*
X25024Y-17379D01*
X25033Y-17398D01*
X25033Y-17436D01*
X25024Y-17454D01*
X25014Y-17464D01*
X24995Y-17473D01*
X24949Y-17473D01*
X24930Y-17464D01*
X24920Y-17454D01*
X24911Y-17436D01*
X24911Y-17398D01*
X24920Y-17379D01*
X24930Y-17370D01*
X24949Y-17361D01*
X24758Y-17089D02*
X24758Y-16976D01*
X24758Y-17032D02*
X24561Y-17032D01*
X24589Y-17014D01*
X24608Y-16995D01*
X24617Y-16976D01*
X24561Y-17211D02*
X24561Y-17229D01*
X24570Y-17248D01*
X24580Y-17257D01*
X24599Y-17267D01*
X24636Y-17276D01*
X24683Y-17276D01*
X24720Y-17267D01*
X24739Y-17257D01*
X24749Y-17248D01*
X24758Y-17229D01*
X24758Y-17211D01*
X24749Y-17192D01*
X24739Y-17182D01*
X24720Y-17173D01*
X24683Y-17164D01*
X24636Y-17164D01*
X24599Y-17173D01*
X24580Y-17182D01*
X24570Y-17192D01*
X24561Y-17211D01*
X24561Y-17398D02*
X24561Y-17417D01*
X24570Y-17436D01*
X24580Y-17445D01*
X24599Y-17454D01*
X24636Y-17464D01*
X24683Y-17464D01*
X24720Y-17454D01*
X24739Y-17445D01*
X24749Y-17436D01*
X24758Y-17417D01*
X24758Y-17398D01*
X24749Y-17379D01*
X24739Y-17370D01*
X24720Y-17361D01*
X24683Y-17351D01*
X24636Y-17351D01*
X24599Y-17361D01*
X24580Y-17370D01*
X24570Y-17379D01*
X24561Y-17398D01*
X24758Y-17548D02*
X24561Y-17548D01*
X24758Y-17661D02*
X24645Y-17576D01*
X24561Y-17661D02*
X24674Y-17548D01*
X26014Y-19286D02*
X26024Y-19276D01*
X26033Y-19248D01*
X26033Y-19229D01*
X26024Y-19201D01*
X26005Y-19182D01*
X25986Y-19173D01*
X25949Y-19164D01*
X25920Y-19164D01*
X25883Y-19173D01*
X25864Y-19182D01*
X25845Y-19201D01*
X25836Y-19229D01*
X25836Y-19248D01*
X25845Y-19276D01*
X25855Y-19286D01*
X25902Y-19454D02*
X26033Y-19454D01*
X25827Y-19408D02*
X25967Y-19361D01*
X25967Y-19483D01*
X25758Y-19107D02*
X25758Y-18995D01*
X25758Y-19051D02*
X25561Y-19051D01*
X25589Y-19032D01*
X25608Y-19014D01*
X25617Y-18995D01*
X25561Y-19229D02*
X25561Y-19248D01*
X25570Y-19267D01*
X25580Y-19276D01*
X25599Y-19286D01*
X25636Y-19295D01*
X25683Y-19295D01*
X25720Y-19286D01*
X25739Y-19276D01*
X25749Y-19267D01*
X25758Y-19248D01*
X25758Y-19229D01*
X25749Y-19211D01*
X25739Y-19201D01*
X25720Y-19192D01*
X25683Y-19182D01*
X25636Y-19182D01*
X25599Y-19192D01*
X25580Y-19201D01*
X25570Y-19211D01*
X25561Y-19229D01*
X25627Y-19379D02*
X25758Y-19379D01*
X25645Y-19379D02*
X25636Y-19389D01*
X25627Y-19408D01*
X25627Y-19436D01*
X25636Y-19454D01*
X25655Y-19464D01*
X25758Y-19464D01*
X25655Y-19623D02*
X25655Y-19558D01*
X25758Y-19558D02*
X25561Y-19558D01*
X25561Y-19651D01*
X26533Y-19192D02*
X26439Y-19126D01*
X26533Y-19079D02*
X26336Y-19079D01*
X26336Y-19154D01*
X26345Y-19173D01*
X26355Y-19182D01*
X26374Y-19192D01*
X26402Y-19192D01*
X26420Y-19182D01*
X26430Y-19173D01*
X26439Y-19154D01*
X26439Y-19079D01*
X26533Y-19379D02*
X26533Y-19267D01*
X26533Y-19323D02*
X26336Y-19323D01*
X26364Y-19304D01*
X26383Y-19286D01*
X26392Y-19267D01*
X26336Y-19445D02*
X26336Y-19567D01*
X26411Y-19501D01*
X26411Y-19529D01*
X26420Y-19548D01*
X26430Y-19558D01*
X26449Y-19567D01*
X26495Y-19567D01*
X26514Y-19558D01*
X26524Y-19548D01*
X26533Y-19529D01*
X26533Y-19473D01*
X26524Y-19454D01*
X26514Y-19445D01*
X26808Y-19089D02*
X26808Y-18976D01*
X26808Y-19032D02*
X26611Y-19032D01*
X26639Y-19014D01*
X26658Y-18995D01*
X26667Y-18976D01*
X26611Y-19211D02*
X26611Y-19229D01*
X26620Y-19248D01*
X26630Y-19257D01*
X26649Y-19267D01*
X26686Y-19276D01*
X26733Y-19276D01*
X26770Y-19267D01*
X26789Y-19257D01*
X26799Y-19248D01*
X26808Y-19229D01*
X26808Y-19211D01*
X26799Y-19192D01*
X26789Y-19182D01*
X26770Y-19173D01*
X26733Y-19164D01*
X26686Y-19164D01*
X26649Y-19173D01*
X26630Y-19182D01*
X26620Y-19192D01*
X26611Y-19211D01*
X26611Y-19398D02*
X26611Y-19417D01*
X26620Y-19436D01*
X26630Y-19445D01*
X26649Y-19454D01*
X26686Y-19464D01*
X26733Y-19464D01*
X26770Y-19454D01*
X26789Y-19445D01*
X26799Y-19436D01*
X26808Y-19417D01*
X26808Y-19398D01*
X26799Y-19379D01*
X26789Y-19370D01*
X26770Y-19361D01*
X26733Y-19351D01*
X26686Y-19351D01*
X26649Y-19361D01*
X26630Y-19370D01*
X26620Y-19379D01*
X26611Y-19398D01*
X26808Y-19548D02*
X26611Y-19548D01*
X26808Y-19661D02*
X26695Y-19576D01*
X26611Y-19661D02*
X26724Y-19548D01*
X25033Y-19286D02*
X24939Y-19220D01*
X25033Y-19173D02*
X24836Y-19173D01*
X24836Y-19248D01*
X24845Y-19267D01*
X24855Y-19276D01*
X24874Y-19286D01*
X24902Y-19286D01*
X24920Y-19276D01*
X24930Y-19267D01*
X24939Y-19248D01*
X24939Y-19173D01*
X24836Y-19464D02*
X24836Y-19370D01*
X24930Y-19361D01*
X24920Y-19370D01*
X24911Y-19389D01*
X24911Y-19436D01*
X24920Y-19454D01*
X24930Y-19464D01*
X24949Y-19473D01*
X24995Y-19473D01*
X25014Y-19464D01*
X25024Y-19454D01*
X25033Y-19436D01*
X25033Y-19389D01*
X25024Y-19370D01*
X25014Y-19361D01*
X24758Y-19089D02*
X24758Y-18976D01*
X24758Y-19032D02*
X24561Y-19032D01*
X24589Y-19014D01*
X24608Y-18995D01*
X24617Y-18976D01*
X24561Y-19211D02*
X24561Y-19229D01*
X24570Y-19248D01*
X24580Y-19257D01*
X24599Y-19267D01*
X24636Y-19276D01*
X24683Y-19276D01*
X24720Y-19267D01*
X24739Y-19257D01*
X24749Y-19248D01*
X24758Y-19229D01*
X24758Y-19211D01*
X24749Y-19192D01*
X24739Y-19182D01*
X24720Y-19173D01*
X24683Y-19164D01*
X24636Y-19164D01*
X24599Y-19173D01*
X24580Y-19182D01*
X24570Y-19192D01*
X24561Y-19211D01*
X24561Y-19398D02*
X24561Y-19417D01*
X24570Y-19436D01*
X24580Y-19445D01*
X24599Y-19454D01*
X24636Y-19464D01*
X24683Y-19464D01*
X24720Y-19454D01*
X24739Y-19445D01*
X24749Y-19436D01*
X24758Y-19417D01*
X24758Y-19398D01*
X24749Y-19379D01*
X24739Y-19370D01*
X24720Y-19361D01*
X24683Y-19351D01*
X24636Y-19351D01*
X24599Y-19361D01*
X24580Y-19370D01*
X24570Y-19379D01*
X24561Y-19398D01*
X24758Y-19548D02*
X24561Y-19548D01*
X24758Y-19661D02*
X24645Y-19576D01*
X24561Y-19661D02*
X24674Y-19548D01*
X26014Y-21286D02*
X26024Y-21276D01*
X26033Y-21248D01*
X26033Y-21229D01*
X26024Y-21201D01*
X26005Y-21182D01*
X25986Y-21173D01*
X25949Y-21164D01*
X25920Y-21164D01*
X25883Y-21173D01*
X25864Y-21182D01*
X25845Y-21201D01*
X25836Y-21229D01*
X25836Y-21248D01*
X25845Y-21276D01*
X25855Y-21286D01*
X25836Y-21351D02*
X25836Y-21473D01*
X25911Y-21408D01*
X25911Y-21436D01*
X25920Y-21454D01*
X25930Y-21464D01*
X25949Y-21473D01*
X25995Y-21473D01*
X26014Y-21464D01*
X26024Y-21454D01*
X26033Y-21436D01*
X26033Y-21379D01*
X26024Y-21361D01*
X26014Y-21351D01*
X25758Y-21107D02*
X25758Y-20995D01*
X25758Y-21051D02*
X25561Y-21051D01*
X25589Y-21032D01*
X25608Y-21014D01*
X25617Y-20995D01*
X25561Y-21229D02*
X25561Y-21248D01*
X25570Y-21267D01*
X25580Y-21276D01*
X25599Y-21286D01*
X25636Y-21295D01*
X25683Y-21295D01*
X25720Y-21286D01*
X25739Y-21276D01*
X25749Y-21267D01*
X25758Y-21248D01*
X25758Y-21229D01*
X25749Y-21211D01*
X25739Y-21201D01*
X25720Y-21192D01*
X25683Y-21182D01*
X25636Y-21182D01*
X25599Y-21192D01*
X25580Y-21201D01*
X25570Y-21211D01*
X25561Y-21229D01*
X25627Y-21379D02*
X25758Y-21379D01*
X25645Y-21379D02*
X25636Y-21389D01*
X25627Y-21408D01*
X25627Y-21436D01*
X25636Y-21454D01*
X25655Y-21464D01*
X25758Y-21464D01*
X25655Y-21623D02*
X25655Y-21558D01*
X25758Y-21558D02*
X25561Y-21558D01*
X25561Y-21651D01*
X26533Y-21192D02*
X26439Y-21126D01*
X26533Y-21079D02*
X26336Y-21079D01*
X26336Y-21154D01*
X26345Y-21173D01*
X26355Y-21182D01*
X26374Y-21192D01*
X26402Y-21192D01*
X26420Y-21182D01*
X26430Y-21173D01*
X26439Y-21154D01*
X26439Y-21079D01*
X26533Y-21379D02*
X26533Y-21267D01*
X26533Y-21323D02*
X26336Y-21323D01*
X26364Y-21304D01*
X26383Y-21286D01*
X26392Y-21267D01*
X26355Y-21454D02*
X26345Y-21464D01*
X26336Y-21483D01*
X26336Y-21529D01*
X26345Y-21548D01*
X26355Y-21558D01*
X26374Y-21567D01*
X26392Y-21567D01*
X26420Y-21558D01*
X26533Y-21445D01*
X26533Y-21567D01*
X26808Y-21089D02*
X26808Y-20976D01*
X26808Y-21032D02*
X26611Y-21032D01*
X26639Y-21014D01*
X26658Y-20995D01*
X26667Y-20976D01*
X26611Y-21211D02*
X26611Y-21229D01*
X26620Y-21248D01*
X26630Y-21257D01*
X26649Y-21267D01*
X26686Y-21276D01*
X26733Y-21276D01*
X26770Y-21267D01*
X26789Y-21257D01*
X26799Y-21248D01*
X26808Y-21229D01*
X26808Y-21211D01*
X26799Y-21192D01*
X26789Y-21182D01*
X26770Y-21173D01*
X26733Y-21164D01*
X26686Y-21164D01*
X26649Y-21173D01*
X26630Y-21182D01*
X26620Y-21192D01*
X26611Y-21211D01*
X26611Y-21398D02*
X26611Y-21417D01*
X26620Y-21436D01*
X26630Y-21445D01*
X26649Y-21454D01*
X26686Y-21464D01*
X26733Y-21464D01*
X26770Y-21454D01*
X26789Y-21445D01*
X26799Y-21436D01*
X26808Y-21417D01*
X26808Y-21398D01*
X26799Y-21379D01*
X26789Y-21370D01*
X26770Y-21361D01*
X26733Y-21351D01*
X26686Y-21351D01*
X26649Y-21361D01*
X26630Y-21370D01*
X26620Y-21379D01*
X26611Y-21398D01*
X26808Y-21548D02*
X26611Y-21548D01*
X26808Y-21661D02*
X26695Y-21576D01*
X26611Y-21661D02*
X26724Y-21548D01*
X25033Y-21286D02*
X24939Y-21220D01*
X25033Y-21173D02*
X24836Y-21173D01*
X24836Y-21248D01*
X24845Y-21267D01*
X24855Y-21276D01*
X24874Y-21286D01*
X24902Y-21286D01*
X24920Y-21276D01*
X24930Y-21267D01*
X24939Y-21248D01*
X24939Y-21173D01*
X24902Y-21454D02*
X25033Y-21454D01*
X24827Y-21408D02*
X24967Y-21361D01*
X24967Y-21483D01*
X24758Y-21089D02*
X24758Y-20976D01*
X24758Y-21032D02*
X24561Y-21032D01*
X24589Y-21014D01*
X24608Y-20995D01*
X24617Y-20976D01*
X24561Y-21211D02*
X24561Y-21229D01*
X24570Y-21248D01*
X24580Y-21257D01*
X24599Y-21267D01*
X24636Y-21276D01*
X24683Y-21276D01*
X24720Y-21267D01*
X24739Y-21257D01*
X24749Y-21248D01*
X24758Y-21229D01*
X24758Y-21211D01*
X24749Y-21192D01*
X24739Y-21182D01*
X24720Y-21173D01*
X24683Y-21164D01*
X24636Y-21164D01*
X24599Y-21173D01*
X24580Y-21182D01*
X24570Y-21192D01*
X24561Y-21211D01*
X24561Y-21398D02*
X24561Y-21417D01*
X24570Y-21436D01*
X24580Y-21445D01*
X24599Y-21454D01*
X24636Y-21464D01*
X24683Y-21464D01*
X24720Y-21454D01*
X24739Y-21445D01*
X24749Y-21436D01*
X24758Y-21417D01*
X24758Y-21398D01*
X24749Y-21379D01*
X24739Y-21370D01*
X24720Y-21361D01*
X24683Y-21351D01*
X24636Y-21351D01*
X24599Y-21361D01*
X24580Y-21370D01*
X24570Y-21379D01*
X24561Y-21398D01*
X24758Y-21548D02*
X24561Y-21548D01*
X24758Y-21661D02*
X24645Y-21576D01*
X24561Y-21661D02*
X24674Y-21548D01*
X26014Y-23286D02*
X26024Y-23276D01*
X26033Y-23248D01*
X26033Y-23229D01*
X26024Y-23201D01*
X26005Y-23182D01*
X25986Y-23173D01*
X25949Y-23164D01*
X25920Y-23164D01*
X25883Y-23173D01*
X25864Y-23182D01*
X25845Y-23201D01*
X25836Y-23229D01*
X25836Y-23248D01*
X25845Y-23276D01*
X25855Y-23286D01*
X25855Y-23361D02*
X25845Y-23370D01*
X25836Y-23389D01*
X25836Y-23436D01*
X25845Y-23454D01*
X25855Y-23464D01*
X25874Y-23473D01*
X25892Y-23473D01*
X25920Y-23464D01*
X26033Y-23351D01*
X26033Y-23473D01*
X25758Y-23107D02*
X25758Y-22995D01*
X25758Y-23051D02*
X25561Y-23051D01*
X25589Y-23032D01*
X25608Y-23014D01*
X25617Y-22995D01*
X25561Y-23229D02*
X25561Y-23248D01*
X25570Y-23267D01*
X25580Y-23276D01*
X25599Y-23286D01*
X25636Y-23295D01*
X25683Y-23295D01*
X25720Y-23286D01*
X25739Y-23276D01*
X25749Y-23267D01*
X25758Y-23248D01*
X25758Y-23229D01*
X25749Y-23211D01*
X25739Y-23201D01*
X25720Y-23192D01*
X25683Y-23182D01*
X25636Y-23182D01*
X25599Y-23192D01*
X25580Y-23201D01*
X25570Y-23211D01*
X25561Y-23229D01*
X25627Y-23379D02*
X25758Y-23379D01*
X25645Y-23379D02*
X25636Y-23389D01*
X25627Y-23408D01*
X25627Y-23436D01*
X25636Y-23454D01*
X25655Y-23464D01*
X25758Y-23464D01*
X25655Y-23623D02*
X25655Y-23558D01*
X25758Y-23558D02*
X25561Y-23558D01*
X25561Y-23651D01*
X26533Y-23192D02*
X26439Y-23126D01*
X26533Y-23079D02*
X26336Y-23079D01*
X26336Y-23154D01*
X26345Y-23173D01*
X26355Y-23182D01*
X26374Y-23192D01*
X26402Y-23192D01*
X26420Y-23182D01*
X26430Y-23173D01*
X26439Y-23154D01*
X26439Y-23079D01*
X26533Y-23379D02*
X26533Y-23267D01*
X26533Y-23323D02*
X26336Y-23323D01*
X26364Y-23304D01*
X26383Y-23286D01*
X26392Y-23267D01*
X26533Y-23567D02*
X26533Y-23454D01*
X26533Y-23511D02*
X26336Y-23511D01*
X26364Y-23492D01*
X26383Y-23473D01*
X26392Y-23454D01*
X26808Y-23089D02*
X26808Y-22976D01*
X26808Y-23032D02*
X26611Y-23032D01*
X26639Y-23014D01*
X26658Y-22995D01*
X26667Y-22976D01*
X26611Y-23211D02*
X26611Y-23229D01*
X26620Y-23248D01*
X26630Y-23257D01*
X26649Y-23267D01*
X26686Y-23276D01*
X26733Y-23276D01*
X26770Y-23267D01*
X26789Y-23257D01*
X26799Y-23248D01*
X26808Y-23229D01*
X26808Y-23211D01*
X26799Y-23192D01*
X26789Y-23182D01*
X26770Y-23173D01*
X26733Y-23164D01*
X26686Y-23164D01*
X26649Y-23173D01*
X26630Y-23182D01*
X26620Y-23192D01*
X26611Y-23211D01*
X26611Y-23398D02*
X26611Y-23417D01*
X26620Y-23436D01*
X26630Y-23445D01*
X26649Y-23454D01*
X26686Y-23464D01*
X26733Y-23464D01*
X26770Y-23454D01*
X26789Y-23445D01*
X26799Y-23436D01*
X26808Y-23417D01*
X26808Y-23398D01*
X26799Y-23379D01*
X26789Y-23370D01*
X26770Y-23361D01*
X26733Y-23351D01*
X26686Y-23351D01*
X26649Y-23361D01*
X26630Y-23370D01*
X26620Y-23379D01*
X26611Y-23398D01*
X26808Y-23548D02*
X26611Y-23548D01*
X26808Y-23661D02*
X26695Y-23576D01*
X26611Y-23661D02*
X26724Y-23548D01*
X25033Y-23286D02*
X24939Y-23220D01*
X25033Y-23173D02*
X24836Y-23173D01*
X24836Y-23248D01*
X24845Y-23267D01*
X24855Y-23276D01*
X24874Y-23286D01*
X24902Y-23286D01*
X24920Y-23276D01*
X24930Y-23267D01*
X24939Y-23248D01*
X24939Y-23173D01*
X24836Y-23351D02*
X24836Y-23473D01*
X24911Y-23408D01*
X24911Y-23436D01*
X24920Y-23454D01*
X24930Y-23464D01*
X24949Y-23473D01*
X24995Y-23473D01*
X25014Y-23464D01*
X25024Y-23454D01*
X25033Y-23436D01*
X25033Y-23379D01*
X25024Y-23361D01*
X25014Y-23351D01*
X24758Y-23089D02*
X24758Y-22976D01*
X24758Y-23032D02*
X24561Y-23032D01*
X24589Y-23014D01*
X24608Y-22995D01*
X24617Y-22976D01*
X24561Y-23211D02*
X24561Y-23229D01*
X24570Y-23248D01*
X24580Y-23257D01*
X24599Y-23267D01*
X24636Y-23276D01*
X24683Y-23276D01*
X24720Y-23267D01*
X24739Y-23257D01*
X24749Y-23248D01*
X24758Y-23229D01*
X24758Y-23211D01*
X24749Y-23192D01*
X24739Y-23182D01*
X24720Y-23173D01*
X24683Y-23164D01*
X24636Y-23164D01*
X24599Y-23173D01*
X24580Y-23182D01*
X24570Y-23192D01*
X24561Y-23211D01*
X24561Y-23398D02*
X24561Y-23417D01*
X24570Y-23436D01*
X24580Y-23445D01*
X24599Y-23454D01*
X24636Y-23464D01*
X24683Y-23464D01*
X24720Y-23454D01*
X24739Y-23445D01*
X24749Y-23436D01*
X24758Y-23417D01*
X24758Y-23398D01*
X24749Y-23379D01*
X24739Y-23370D01*
X24720Y-23361D01*
X24683Y-23351D01*
X24636Y-23351D01*
X24599Y-23361D01*
X24580Y-23370D01*
X24570Y-23379D01*
X24561Y-23398D01*
X24758Y-23548D02*
X24561Y-23548D01*
X24758Y-23661D02*
X24645Y-23576D01*
X24561Y-23661D02*
X24674Y-23548D01*
X28126Y-49435D02*
X28136Y-49445D01*
X28164Y-49454D01*
X28182Y-49454D01*
X28211Y-49445D01*
X28229Y-49426D01*
X28239Y-49407D01*
X28248Y-49370D01*
X28248Y-49342D01*
X28239Y-49304D01*
X28229Y-49285D01*
X28211Y-49267D01*
X28182Y-49257D01*
X28164Y-49257D01*
X28136Y-49267D01*
X28126Y-49276D01*
X27939Y-49454D02*
X28051Y-49454D01*
X27995Y-49454D02*
X27995Y-49257D01*
X28014Y-49285D01*
X28032Y-49304D01*
X28051Y-49314D01*
X27873Y-49257D02*
X27742Y-49257D01*
X27826Y-49454D01*
X28323Y-49551D02*
X28314Y-49542D01*
X28295Y-49532D01*
X28248Y-49532D01*
X28229Y-49542D01*
X28220Y-49551D01*
X28211Y-49570D01*
X28211Y-49589D01*
X28220Y-49617D01*
X28333Y-49729D01*
X28211Y-49729D01*
X28089Y-49532D02*
X28070Y-49532D01*
X28051Y-49542D01*
X28042Y-49551D01*
X28032Y-49570D01*
X28023Y-49607D01*
X28023Y-49654D01*
X28032Y-49692D01*
X28042Y-49710D01*
X28051Y-49720D01*
X28070Y-49729D01*
X28089Y-49729D01*
X28107Y-49720D01*
X28117Y-49710D01*
X28126Y-49692D01*
X28136Y-49654D01*
X28136Y-49607D01*
X28126Y-49570D01*
X28117Y-49551D01*
X28107Y-49542D01*
X28089Y-49532D01*
X27939Y-49598D02*
X27939Y-49795D01*
X27939Y-49607D02*
X27920Y-49598D01*
X27882Y-49598D01*
X27863Y-49607D01*
X27854Y-49617D01*
X27845Y-49635D01*
X27845Y-49692D01*
X27854Y-49710D01*
X27863Y-49720D01*
X27882Y-49729D01*
X27920Y-49729D01*
X27939Y-49720D01*
X27695Y-49626D02*
X27760Y-49626D01*
X27760Y-49729D02*
X27760Y-49532D01*
X27666Y-49532D01*
X33626Y-25454D02*
X33692Y-25360D01*
X33739Y-25454D02*
X33739Y-25257D01*
X33664Y-25257D01*
X33645Y-25267D01*
X33636Y-25276D01*
X33626Y-25295D01*
X33626Y-25323D01*
X33636Y-25342D01*
X33645Y-25351D01*
X33664Y-25360D01*
X33739Y-25360D01*
X33551Y-25276D02*
X33542Y-25267D01*
X33523Y-25257D01*
X33476Y-25257D01*
X33457Y-25267D01*
X33448Y-25276D01*
X33439Y-25295D01*
X33439Y-25314D01*
X33448Y-25342D01*
X33560Y-25454D01*
X33439Y-25454D01*
X33373Y-25257D02*
X33242Y-25257D01*
X33326Y-25454D01*
X33631Y-25179D02*
X33743Y-25179D01*
X33687Y-25179D02*
X33687Y-24982D01*
X33706Y-25010D01*
X33725Y-25029D01*
X33743Y-25039D01*
X33462Y-24982D02*
X33500Y-24982D01*
X33518Y-24992D01*
X33528Y-25001D01*
X33546Y-25029D01*
X33556Y-25067D01*
X33556Y-25142D01*
X33546Y-25160D01*
X33537Y-25170D01*
X33518Y-25179D01*
X33481Y-25179D01*
X33462Y-25170D01*
X33453Y-25160D01*
X33443Y-25142D01*
X33443Y-25095D01*
X33453Y-25076D01*
X33462Y-25067D01*
X33481Y-25057D01*
X33518Y-25057D01*
X33537Y-25067D01*
X33546Y-25076D01*
X33556Y-25095D01*
X33321Y-24982D02*
X33303Y-24982D01*
X33284Y-24992D01*
X33274Y-25001D01*
X33265Y-25020D01*
X33256Y-25057D01*
X33256Y-25104D01*
X33265Y-25142D01*
X33274Y-25160D01*
X33284Y-25170D01*
X33303Y-25179D01*
X33321Y-25179D01*
X33340Y-25170D01*
X33349Y-25160D01*
X33359Y-25142D01*
X33368Y-25104D01*
X33368Y-25057D01*
X33359Y-25020D01*
X33349Y-25001D01*
X33340Y-24992D01*
X33321Y-24982D01*
X33704Y-61373D02*
X33610Y-61307D01*
X33704Y-61260D02*
X33507Y-61260D01*
X33507Y-61335D01*
X33517Y-61354D01*
X33526Y-61363D01*
X33545Y-61373D01*
X33573Y-61373D01*
X33592Y-61363D01*
X33601Y-61354D01*
X33610Y-61335D01*
X33610Y-61260D01*
X33507Y-61439D02*
X33507Y-61560D01*
X33582Y-61495D01*
X33582Y-61523D01*
X33592Y-61542D01*
X33601Y-61551D01*
X33620Y-61560D01*
X33667Y-61560D01*
X33685Y-61551D01*
X33695Y-61542D01*
X33704Y-61523D01*
X33704Y-61467D01*
X33695Y-61448D01*
X33685Y-61439D01*
X33526Y-61636D02*
X33517Y-61645D01*
X33507Y-61664D01*
X33507Y-61711D01*
X33517Y-61729D01*
X33526Y-61739D01*
X33545Y-61748D01*
X33564Y-61748D01*
X33592Y-61739D01*
X33704Y-61626D01*
X33704Y-61748D01*
X33979Y-61368D02*
X33979Y-61256D01*
X33979Y-61312D02*
X33782Y-61312D01*
X33810Y-61293D01*
X33829Y-61274D01*
X33839Y-61256D01*
X33782Y-61537D02*
X33782Y-61500D01*
X33792Y-61481D01*
X33801Y-61471D01*
X33829Y-61453D01*
X33867Y-61443D01*
X33942Y-61443D01*
X33960Y-61453D01*
X33970Y-61462D01*
X33979Y-61481D01*
X33979Y-61518D01*
X33970Y-61537D01*
X33960Y-61546D01*
X33942Y-61556D01*
X33895Y-61556D01*
X33876Y-61546D01*
X33867Y-61537D01*
X33857Y-61518D01*
X33857Y-61481D01*
X33867Y-61462D01*
X33876Y-61453D01*
X33895Y-61443D01*
X33782Y-61678D02*
X33782Y-61697D01*
X33792Y-61715D01*
X33801Y-61725D01*
X33820Y-61734D01*
X33857Y-61743D01*
X33904Y-61743D01*
X33942Y-61734D01*
X33960Y-61725D01*
X33970Y-61715D01*
X33979Y-61697D01*
X33979Y-61678D01*
X33970Y-61659D01*
X33960Y-61650D01*
X33942Y-61640D01*
X33904Y-61631D01*
X33857Y-61631D01*
X33820Y-61640D01*
X33801Y-61650D01*
X33792Y-61659D01*
X33782Y-61678D01*
X33704Y-54123D02*
X33610Y-54057D01*
X33704Y-54010D02*
X33507Y-54010D01*
X33507Y-54085D01*
X33517Y-54104D01*
X33526Y-54113D01*
X33545Y-54123D01*
X33573Y-54123D01*
X33592Y-54113D01*
X33601Y-54104D01*
X33610Y-54085D01*
X33610Y-54010D01*
X33507Y-54189D02*
X33507Y-54310D01*
X33582Y-54245D01*
X33582Y-54273D01*
X33592Y-54292D01*
X33601Y-54301D01*
X33620Y-54310D01*
X33667Y-54310D01*
X33685Y-54301D01*
X33695Y-54292D01*
X33704Y-54273D01*
X33704Y-54217D01*
X33695Y-54198D01*
X33685Y-54189D01*
X33704Y-54498D02*
X33704Y-54386D01*
X33704Y-54442D02*
X33507Y-54442D01*
X33535Y-54423D01*
X33554Y-54404D01*
X33564Y-54386D01*
X34031Y-54329D02*
X34143Y-54329D01*
X34087Y-54329D02*
X34087Y-54132D01*
X34106Y-54160D01*
X34125Y-54179D01*
X34143Y-54189D01*
X33862Y-54132D02*
X33900Y-54132D01*
X33918Y-54142D01*
X33928Y-54151D01*
X33946Y-54179D01*
X33956Y-54217D01*
X33956Y-54292D01*
X33946Y-54310D01*
X33937Y-54320D01*
X33918Y-54329D01*
X33881Y-54329D01*
X33862Y-54320D01*
X33853Y-54310D01*
X33843Y-54292D01*
X33843Y-54245D01*
X33853Y-54226D01*
X33862Y-54217D01*
X33881Y-54207D01*
X33918Y-54207D01*
X33937Y-54217D01*
X33946Y-54226D01*
X33956Y-54245D01*
X33721Y-54132D02*
X33703Y-54132D01*
X33684Y-54142D01*
X33674Y-54151D01*
X33665Y-54170D01*
X33656Y-54207D01*
X33656Y-54254D01*
X33665Y-54292D01*
X33674Y-54310D01*
X33684Y-54320D01*
X33703Y-54329D01*
X33721Y-54329D01*
X33740Y-54320D01*
X33749Y-54310D01*
X33759Y-54292D01*
X33768Y-54254D01*
X33768Y-54207D01*
X33759Y-54170D01*
X33749Y-54151D01*
X33740Y-54142D01*
X33721Y-54132D01*
X33704Y-46873D02*
X33610Y-46807D01*
X33704Y-46760D02*
X33507Y-46760D01*
X33507Y-46835D01*
X33517Y-46854D01*
X33526Y-46863D01*
X33545Y-46873D01*
X33573Y-46873D01*
X33592Y-46863D01*
X33601Y-46854D01*
X33610Y-46835D01*
X33610Y-46760D01*
X33507Y-46939D02*
X33507Y-47060D01*
X33582Y-46995D01*
X33582Y-47023D01*
X33592Y-47042D01*
X33601Y-47051D01*
X33620Y-47060D01*
X33667Y-47060D01*
X33685Y-47051D01*
X33695Y-47042D01*
X33704Y-47023D01*
X33704Y-46967D01*
X33695Y-46948D01*
X33685Y-46939D01*
X33507Y-47182D02*
X33507Y-47201D01*
X33517Y-47220D01*
X33526Y-47229D01*
X33545Y-47239D01*
X33582Y-47248D01*
X33629Y-47248D01*
X33667Y-47239D01*
X33685Y-47229D01*
X33695Y-47220D01*
X33704Y-47201D01*
X33704Y-47182D01*
X33695Y-47164D01*
X33685Y-47154D01*
X33667Y-47145D01*
X33629Y-47136D01*
X33582Y-47136D01*
X33545Y-47145D01*
X33526Y-47154D01*
X33517Y-47164D01*
X33507Y-47182D01*
X33979Y-46868D02*
X33979Y-46756D01*
X33979Y-46812D02*
X33782Y-46812D01*
X33810Y-46793D01*
X33829Y-46774D01*
X33839Y-46756D01*
X33782Y-47037D02*
X33782Y-47000D01*
X33792Y-46981D01*
X33801Y-46971D01*
X33829Y-46953D01*
X33867Y-46943D01*
X33942Y-46943D01*
X33960Y-46953D01*
X33970Y-46962D01*
X33979Y-46981D01*
X33979Y-47018D01*
X33970Y-47037D01*
X33960Y-47046D01*
X33942Y-47056D01*
X33895Y-47056D01*
X33876Y-47046D01*
X33867Y-47037D01*
X33857Y-47018D01*
X33857Y-46981D01*
X33867Y-46962D01*
X33876Y-46953D01*
X33895Y-46943D01*
X33782Y-47178D02*
X33782Y-47197D01*
X33792Y-47215D01*
X33801Y-47225D01*
X33820Y-47234D01*
X33857Y-47243D01*
X33904Y-47243D01*
X33942Y-47234D01*
X33960Y-47225D01*
X33970Y-47215D01*
X33979Y-47197D01*
X33979Y-47178D01*
X33970Y-47159D01*
X33960Y-47150D01*
X33942Y-47140D01*
X33904Y-47131D01*
X33857Y-47131D01*
X33820Y-47140D01*
X33801Y-47150D01*
X33792Y-47159D01*
X33782Y-47178D01*
X33626Y-39954D02*
X33692Y-39860D01*
X33739Y-39954D02*
X33739Y-39757D01*
X33664Y-39757D01*
X33645Y-39767D01*
X33636Y-39776D01*
X33626Y-39795D01*
X33626Y-39823D01*
X33636Y-39842D01*
X33645Y-39851D01*
X33664Y-39860D01*
X33739Y-39860D01*
X33551Y-39776D02*
X33542Y-39767D01*
X33523Y-39757D01*
X33476Y-39757D01*
X33457Y-39767D01*
X33448Y-39776D01*
X33439Y-39795D01*
X33439Y-39814D01*
X33448Y-39842D01*
X33560Y-39954D01*
X33439Y-39954D01*
X33345Y-39954D02*
X33307Y-39954D01*
X33288Y-39945D01*
X33279Y-39935D01*
X33260Y-39907D01*
X33251Y-39870D01*
X33251Y-39795D01*
X33260Y-39776D01*
X33270Y-39767D01*
X33288Y-39757D01*
X33326Y-39757D01*
X33345Y-39767D01*
X33354Y-39776D01*
X33363Y-39795D01*
X33363Y-39842D01*
X33354Y-39860D01*
X33345Y-39870D01*
X33326Y-39879D01*
X33288Y-39879D01*
X33270Y-39870D01*
X33260Y-39860D01*
X33251Y-39842D01*
X33631Y-39679D02*
X33743Y-39679D01*
X33687Y-39679D02*
X33687Y-39482D01*
X33706Y-39510D01*
X33725Y-39529D01*
X33743Y-39539D01*
X33462Y-39482D02*
X33500Y-39482D01*
X33518Y-39492D01*
X33528Y-39501D01*
X33546Y-39529D01*
X33556Y-39567D01*
X33556Y-39642D01*
X33546Y-39660D01*
X33537Y-39670D01*
X33518Y-39679D01*
X33481Y-39679D01*
X33462Y-39670D01*
X33453Y-39660D01*
X33443Y-39642D01*
X33443Y-39595D01*
X33453Y-39576D01*
X33462Y-39567D01*
X33481Y-39557D01*
X33518Y-39557D01*
X33537Y-39567D01*
X33546Y-39576D01*
X33556Y-39595D01*
X33321Y-39482D02*
X33303Y-39482D01*
X33284Y-39492D01*
X33274Y-39501D01*
X33265Y-39520D01*
X33256Y-39557D01*
X33256Y-39604D01*
X33265Y-39642D01*
X33274Y-39660D01*
X33284Y-39670D01*
X33303Y-39679D01*
X33321Y-39679D01*
X33340Y-39670D01*
X33349Y-39660D01*
X33359Y-39642D01*
X33368Y-39604D01*
X33368Y-39557D01*
X33359Y-39520D01*
X33349Y-39501D01*
X33340Y-39492D01*
X33321Y-39482D01*
X33626Y-18204D02*
X33692Y-18110D01*
X33739Y-18204D02*
X33739Y-18007D01*
X33664Y-18007D01*
X33645Y-18017D01*
X33636Y-18026D01*
X33626Y-18045D01*
X33626Y-18073D01*
X33636Y-18092D01*
X33645Y-18101D01*
X33664Y-18110D01*
X33739Y-18110D01*
X33551Y-18026D02*
X33542Y-18017D01*
X33523Y-18007D01*
X33476Y-18007D01*
X33457Y-18017D01*
X33448Y-18026D01*
X33439Y-18045D01*
X33439Y-18064D01*
X33448Y-18092D01*
X33560Y-18204D01*
X33439Y-18204D01*
X33270Y-18007D02*
X33307Y-18007D01*
X33326Y-18017D01*
X33335Y-18026D01*
X33354Y-18054D01*
X33363Y-18092D01*
X33363Y-18167D01*
X33354Y-18185D01*
X33345Y-18195D01*
X33326Y-18204D01*
X33288Y-18204D01*
X33270Y-18195D01*
X33260Y-18185D01*
X33251Y-18167D01*
X33251Y-18120D01*
X33260Y-18101D01*
X33270Y-18092D01*
X33288Y-18082D01*
X33326Y-18082D01*
X33345Y-18092D01*
X33354Y-18101D01*
X33363Y-18120D01*
X33631Y-17929D02*
X33743Y-17929D01*
X33687Y-17929D02*
X33687Y-17732D01*
X33706Y-17760D01*
X33725Y-17779D01*
X33743Y-17789D01*
X33462Y-17732D02*
X33500Y-17732D01*
X33518Y-17742D01*
X33528Y-17751D01*
X33546Y-17779D01*
X33556Y-17817D01*
X33556Y-17892D01*
X33546Y-17910D01*
X33537Y-17920D01*
X33518Y-17929D01*
X33481Y-17929D01*
X33462Y-17920D01*
X33453Y-17910D01*
X33443Y-17892D01*
X33443Y-17845D01*
X33453Y-17826D01*
X33462Y-17817D01*
X33481Y-17807D01*
X33518Y-17807D01*
X33537Y-17817D01*
X33546Y-17826D01*
X33556Y-17845D01*
X33321Y-17732D02*
X33303Y-17732D01*
X33284Y-17742D01*
X33274Y-17751D01*
X33265Y-17770D01*
X33256Y-17807D01*
X33256Y-17854D01*
X33265Y-17892D01*
X33274Y-17910D01*
X33284Y-17920D01*
X33303Y-17929D01*
X33321Y-17929D01*
X33340Y-17920D01*
X33349Y-17910D01*
X33359Y-17892D01*
X33368Y-17854D01*
X33368Y-17807D01*
X33359Y-17770D01*
X33349Y-17751D01*
X33340Y-17742D01*
X33321Y-17732D01*
X31935Y-13129D02*
X31841Y-13063D01*
X31935Y-13016D02*
X31738Y-13016D01*
X31738Y-13091D01*
X31747Y-13110D01*
X31756Y-13119D01*
X31775Y-13129D01*
X31803Y-13129D01*
X31822Y-13119D01*
X31831Y-13110D01*
X31841Y-13091D01*
X31841Y-13016D01*
X31756Y-13204D02*
X31747Y-13213D01*
X31738Y-13232D01*
X31738Y-13279D01*
X31747Y-13298D01*
X31756Y-13307D01*
X31775Y-13316D01*
X31794Y-13316D01*
X31822Y-13307D01*
X31935Y-13194D01*
X31935Y-13316D01*
X31738Y-13495D02*
X31738Y-13401D01*
X31831Y-13391D01*
X31822Y-13401D01*
X31813Y-13420D01*
X31813Y-13466D01*
X31822Y-13485D01*
X31831Y-13495D01*
X31850Y-13504D01*
X31897Y-13504D01*
X31916Y-13495D01*
X31925Y-13485D01*
X31935Y-13466D01*
X31935Y-13420D01*
X31925Y-13401D01*
X31916Y-13391D01*
X31660Y-13124D02*
X31660Y-13012D01*
X31660Y-13068D02*
X31463Y-13068D01*
X31491Y-13049D01*
X31509Y-13030D01*
X31519Y-13012D01*
X31463Y-13293D02*
X31463Y-13255D01*
X31472Y-13237D01*
X31481Y-13227D01*
X31509Y-13209D01*
X31547Y-13199D01*
X31622Y-13199D01*
X31641Y-13209D01*
X31650Y-13218D01*
X31660Y-13237D01*
X31660Y-13274D01*
X31650Y-13293D01*
X31641Y-13302D01*
X31622Y-13312D01*
X31575Y-13312D01*
X31556Y-13302D01*
X31547Y-13293D01*
X31538Y-13274D01*
X31538Y-13237D01*
X31547Y-13218D01*
X31556Y-13209D01*
X31575Y-13199D01*
X31463Y-13434D02*
X31463Y-13452D01*
X31472Y-13471D01*
X31481Y-13481D01*
X31500Y-13490D01*
X31538Y-13499D01*
X31585Y-13499D01*
X31622Y-13490D01*
X31641Y-13481D01*
X31650Y-13471D01*
X31660Y-13452D01*
X31660Y-13434D01*
X31650Y-13415D01*
X31641Y-13406D01*
X31622Y-13396D01*
X31585Y-13387D01*
X31538Y-13387D01*
X31500Y-13396D01*
X31481Y-13406D01*
X31472Y-13415D01*
X31463Y-13434D01*
X26533Y-17192D02*
X26439Y-17126D01*
X26533Y-17079D02*
X26336Y-17079D01*
X26336Y-17154D01*
X26345Y-17173D01*
X26355Y-17182D01*
X26374Y-17192D01*
X26402Y-17192D01*
X26420Y-17182D01*
X26430Y-17173D01*
X26439Y-17154D01*
X26439Y-17079D01*
X26533Y-17379D02*
X26533Y-17267D01*
X26533Y-17323D02*
X26336Y-17323D01*
X26364Y-17304D01*
X26383Y-17286D01*
X26392Y-17267D01*
X26402Y-17548D02*
X26533Y-17548D01*
X26327Y-17501D02*
X26467Y-17454D01*
X26467Y-17576D01*
X26808Y-17089D02*
X26808Y-16976D01*
X26808Y-17032D02*
X26611Y-17032D01*
X26639Y-17014D01*
X26658Y-16995D01*
X26667Y-16976D01*
X26611Y-17211D02*
X26611Y-17229D01*
X26620Y-17248D01*
X26630Y-17257D01*
X26649Y-17267D01*
X26686Y-17276D01*
X26733Y-17276D01*
X26770Y-17267D01*
X26789Y-17257D01*
X26799Y-17248D01*
X26808Y-17229D01*
X26808Y-17211D01*
X26799Y-17192D01*
X26789Y-17182D01*
X26770Y-17173D01*
X26733Y-17164D01*
X26686Y-17164D01*
X26649Y-17173D01*
X26630Y-17182D01*
X26620Y-17192D01*
X26611Y-17211D01*
X26611Y-17398D02*
X26611Y-17417D01*
X26620Y-17436D01*
X26630Y-17445D01*
X26649Y-17454D01*
X26686Y-17464D01*
X26733Y-17464D01*
X26770Y-17454D01*
X26789Y-17445D01*
X26799Y-17436D01*
X26808Y-17417D01*
X26808Y-17398D01*
X26799Y-17379D01*
X26789Y-17370D01*
X26770Y-17361D01*
X26733Y-17351D01*
X26686Y-17351D01*
X26649Y-17361D01*
X26630Y-17370D01*
X26620Y-17379D01*
X26611Y-17398D01*
X26808Y-17548D02*
X26611Y-17548D01*
X26808Y-17661D02*
X26695Y-17576D01*
X26611Y-17661D02*
X26724Y-17548D01*
X26014Y-25286D02*
X26024Y-25276D01*
X26033Y-25248D01*
X26033Y-25229D01*
X26024Y-25201D01*
X26005Y-25182D01*
X25986Y-25173D01*
X25949Y-25164D01*
X25920Y-25164D01*
X25883Y-25173D01*
X25864Y-25182D01*
X25845Y-25201D01*
X25836Y-25229D01*
X25836Y-25248D01*
X25845Y-25276D01*
X25855Y-25286D01*
X26033Y-25379D02*
X26033Y-25417D01*
X26024Y-25436D01*
X26014Y-25445D01*
X25986Y-25464D01*
X25949Y-25473D01*
X25874Y-25473D01*
X25855Y-25464D01*
X25845Y-25454D01*
X25836Y-25436D01*
X25836Y-25398D01*
X25845Y-25379D01*
X25855Y-25370D01*
X25874Y-25361D01*
X25920Y-25361D01*
X25939Y-25370D01*
X25949Y-25379D01*
X25958Y-25398D01*
X25958Y-25436D01*
X25949Y-25454D01*
X25939Y-25464D01*
X25920Y-25473D01*
X25758Y-25107D02*
X25758Y-24995D01*
X25758Y-25051D02*
X25561Y-25051D01*
X25589Y-25032D01*
X25608Y-25014D01*
X25617Y-24995D01*
X25561Y-25229D02*
X25561Y-25248D01*
X25570Y-25267D01*
X25580Y-25276D01*
X25599Y-25286D01*
X25636Y-25295D01*
X25683Y-25295D01*
X25720Y-25286D01*
X25739Y-25276D01*
X25749Y-25267D01*
X25758Y-25248D01*
X25758Y-25229D01*
X25749Y-25211D01*
X25739Y-25201D01*
X25720Y-25192D01*
X25683Y-25182D01*
X25636Y-25182D01*
X25599Y-25192D01*
X25580Y-25201D01*
X25570Y-25211D01*
X25561Y-25229D01*
X25627Y-25379D02*
X25758Y-25379D01*
X25645Y-25379D02*
X25636Y-25389D01*
X25627Y-25408D01*
X25627Y-25436D01*
X25636Y-25454D01*
X25655Y-25464D01*
X25758Y-25464D01*
X25655Y-25623D02*
X25655Y-25558D01*
X25758Y-25558D02*
X25561Y-25558D01*
X25561Y-25651D01*
X26533Y-25192D02*
X26439Y-25126D01*
X26533Y-25079D02*
X26336Y-25079D01*
X26336Y-25154D01*
X26345Y-25173D01*
X26355Y-25182D01*
X26374Y-25192D01*
X26402Y-25192D01*
X26420Y-25182D01*
X26430Y-25173D01*
X26439Y-25154D01*
X26439Y-25079D01*
X26533Y-25379D02*
X26533Y-25267D01*
X26533Y-25323D02*
X26336Y-25323D01*
X26364Y-25304D01*
X26383Y-25286D01*
X26392Y-25267D01*
X26420Y-25492D02*
X26411Y-25473D01*
X26402Y-25464D01*
X26383Y-25454D01*
X26374Y-25454D01*
X26355Y-25464D01*
X26345Y-25473D01*
X26336Y-25492D01*
X26336Y-25529D01*
X26345Y-25548D01*
X26355Y-25558D01*
X26374Y-25567D01*
X26383Y-25567D01*
X26402Y-25558D01*
X26411Y-25548D01*
X26420Y-25529D01*
X26420Y-25492D01*
X26430Y-25473D01*
X26439Y-25464D01*
X26458Y-25454D01*
X26495Y-25454D01*
X26514Y-25464D01*
X26524Y-25473D01*
X26533Y-25492D01*
X26533Y-25529D01*
X26524Y-25548D01*
X26514Y-25558D01*
X26495Y-25567D01*
X26458Y-25567D01*
X26439Y-25558D01*
X26430Y-25548D01*
X26420Y-25529D01*
X26808Y-25089D02*
X26808Y-24976D01*
X26808Y-25032D02*
X26611Y-25032D01*
X26639Y-25014D01*
X26658Y-24995D01*
X26667Y-24976D01*
X26611Y-25211D02*
X26611Y-25229D01*
X26620Y-25248D01*
X26630Y-25257D01*
X26649Y-25267D01*
X26686Y-25276D01*
X26733Y-25276D01*
X26770Y-25267D01*
X26789Y-25257D01*
X26799Y-25248D01*
X26808Y-25229D01*
X26808Y-25211D01*
X26799Y-25192D01*
X26789Y-25182D01*
X26770Y-25173D01*
X26733Y-25164D01*
X26686Y-25164D01*
X26649Y-25173D01*
X26630Y-25182D01*
X26620Y-25192D01*
X26611Y-25211D01*
X26611Y-25398D02*
X26611Y-25417D01*
X26620Y-25436D01*
X26630Y-25445D01*
X26649Y-25454D01*
X26686Y-25464D01*
X26733Y-25464D01*
X26770Y-25454D01*
X26789Y-25445D01*
X26799Y-25436D01*
X26808Y-25417D01*
X26808Y-25398D01*
X26799Y-25379D01*
X26789Y-25370D01*
X26770Y-25361D01*
X26733Y-25351D01*
X26686Y-25351D01*
X26649Y-25361D01*
X26630Y-25370D01*
X26620Y-25379D01*
X26611Y-25398D01*
X26808Y-25548D02*
X26611Y-25548D01*
X26808Y-25661D02*
X26695Y-25576D01*
X26611Y-25661D02*
X26724Y-25548D01*
X25033Y-25192D02*
X24939Y-25126D01*
X25033Y-25079D02*
X24836Y-25079D01*
X24836Y-25154D01*
X24845Y-25173D01*
X24855Y-25182D01*
X24874Y-25192D01*
X24902Y-25192D01*
X24920Y-25182D01*
X24930Y-25173D01*
X24939Y-25154D01*
X24939Y-25079D01*
X25033Y-25379D02*
X25033Y-25267D01*
X25033Y-25323D02*
X24836Y-25323D01*
X24864Y-25304D01*
X24883Y-25286D01*
X24892Y-25267D01*
X24836Y-25501D02*
X24836Y-25520D01*
X24845Y-25539D01*
X24855Y-25548D01*
X24874Y-25558D01*
X24911Y-25567D01*
X24958Y-25567D01*
X24995Y-25558D01*
X25014Y-25548D01*
X25024Y-25539D01*
X25033Y-25520D01*
X25033Y-25501D01*
X25024Y-25483D01*
X25014Y-25473D01*
X24995Y-25464D01*
X24958Y-25454D01*
X24911Y-25454D01*
X24874Y-25464D01*
X24855Y-25473D01*
X24845Y-25483D01*
X24836Y-25501D01*
X24758Y-25089D02*
X24758Y-24976D01*
X24758Y-25032D02*
X24561Y-25032D01*
X24589Y-25014D01*
X24608Y-24995D01*
X24617Y-24976D01*
X24561Y-25211D02*
X24561Y-25229D01*
X24570Y-25248D01*
X24580Y-25257D01*
X24599Y-25267D01*
X24636Y-25276D01*
X24683Y-25276D01*
X24720Y-25267D01*
X24739Y-25257D01*
X24749Y-25248D01*
X24758Y-25229D01*
X24758Y-25211D01*
X24749Y-25192D01*
X24739Y-25182D01*
X24720Y-25173D01*
X24683Y-25164D01*
X24636Y-25164D01*
X24599Y-25173D01*
X24580Y-25182D01*
X24570Y-25192D01*
X24561Y-25211D01*
X24561Y-25398D02*
X24561Y-25417D01*
X24570Y-25436D01*
X24580Y-25445D01*
X24599Y-25454D01*
X24636Y-25464D01*
X24683Y-25464D01*
X24720Y-25454D01*
X24739Y-25445D01*
X24749Y-25436D01*
X24758Y-25417D01*
X24758Y-25398D01*
X24749Y-25379D01*
X24739Y-25370D01*
X24720Y-25361D01*
X24683Y-25351D01*
X24636Y-25351D01*
X24599Y-25361D01*
X24580Y-25370D01*
X24570Y-25379D01*
X24561Y-25398D01*
X24758Y-25548D02*
X24561Y-25548D01*
X24758Y-25661D02*
X24645Y-25576D01*
X24561Y-25661D02*
X24674Y-25548D01*
X26014Y-27286D02*
X26024Y-27276D01*
X26033Y-27248D01*
X26033Y-27229D01*
X26024Y-27201D01*
X26005Y-27182D01*
X25986Y-27173D01*
X25949Y-27164D01*
X25920Y-27164D01*
X25883Y-27173D01*
X25864Y-27182D01*
X25845Y-27201D01*
X25836Y-27229D01*
X25836Y-27248D01*
X25845Y-27276D01*
X25855Y-27286D01*
X25920Y-27398D02*
X25911Y-27379D01*
X25902Y-27370D01*
X25883Y-27361D01*
X25874Y-27361D01*
X25855Y-27370D01*
X25845Y-27379D01*
X25836Y-27398D01*
X25836Y-27436D01*
X25845Y-27454D01*
X25855Y-27464D01*
X25874Y-27473D01*
X25883Y-27473D01*
X25902Y-27464D01*
X25911Y-27454D01*
X25920Y-27436D01*
X25920Y-27398D01*
X25930Y-27379D01*
X25939Y-27370D01*
X25958Y-27361D01*
X25995Y-27361D01*
X26014Y-27370D01*
X26024Y-27379D01*
X26033Y-27398D01*
X26033Y-27436D01*
X26024Y-27454D01*
X26014Y-27464D01*
X25995Y-27473D01*
X25958Y-27473D01*
X25939Y-27464D01*
X25930Y-27454D01*
X25920Y-27436D01*
X25758Y-27107D02*
X25758Y-26995D01*
X25758Y-27051D02*
X25561Y-27051D01*
X25589Y-27032D01*
X25608Y-27014D01*
X25617Y-26995D01*
X25561Y-27229D02*
X25561Y-27248D01*
X25570Y-27267D01*
X25580Y-27276D01*
X25599Y-27286D01*
X25636Y-27295D01*
X25683Y-27295D01*
X25720Y-27286D01*
X25739Y-27276D01*
X25749Y-27267D01*
X25758Y-27248D01*
X25758Y-27229D01*
X25749Y-27211D01*
X25739Y-27201D01*
X25720Y-27192D01*
X25683Y-27182D01*
X25636Y-27182D01*
X25599Y-27192D01*
X25580Y-27201D01*
X25570Y-27211D01*
X25561Y-27229D01*
X25627Y-27379D02*
X25758Y-27379D01*
X25645Y-27379D02*
X25636Y-27389D01*
X25627Y-27408D01*
X25627Y-27436D01*
X25636Y-27454D01*
X25655Y-27464D01*
X25758Y-27464D01*
X25655Y-27623D02*
X25655Y-27558D01*
X25758Y-27558D02*
X25561Y-27558D01*
X25561Y-27651D01*
X26533Y-27192D02*
X26439Y-27126D01*
X26533Y-27079D02*
X26336Y-27079D01*
X26336Y-27154D01*
X26345Y-27173D01*
X26355Y-27182D01*
X26374Y-27192D01*
X26402Y-27192D01*
X26420Y-27182D01*
X26430Y-27173D01*
X26439Y-27154D01*
X26439Y-27079D01*
X26533Y-27379D02*
X26533Y-27267D01*
X26533Y-27323D02*
X26336Y-27323D01*
X26364Y-27304D01*
X26383Y-27286D01*
X26392Y-27267D01*
X26336Y-27445D02*
X26336Y-27576D01*
X26533Y-27492D01*
X26808Y-27089D02*
X26808Y-26976D01*
X26808Y-27032D02*
X26611Y-27032D01*
X26639Y-27014D01*
X26658Y-26995D01*
X26667Y-26976D01*
X26611Y-27211D02*
X26611Y-27229D01*
X26620Y-27248D01*
X26630Y-27257D01*
X26649Y-27267D01*
X26686Y-27276D01*
X26733Y-27276D01*
X26770Y-27267D01*
X26789Y-27257D01*
X26799Y-27248D01*
X26808Y-27229D01*
X26808Y-27211D01*
X26799Y-27192D01*
X26789Y-27182D01*
X26770Y-27173D01*
X26733Y-27164D01*
X26686Y-27164D01*
X26649Y-27173D01*
X26630Y-27182D01*
X26620Y-27192D01*
X26611Y-27211D01*
X26611Y-27398D02*
X26611Y-27417D01*
X26620Y-27436D01*
X26630Y-27445D01*
X26649Y-27454D01*
X26686Y-27464D01*
X26733Y-27464D01*
X26770Y-27454D01*
X26789Y-27445D01*
X26799Y-27436D01*
X26808Y-27417D01*
X26808Y-27398D01*
X26799Y-27379D01*
X26789Y-27370D01*
X26770Y-27361D01*
X26733Y-27351D01*
X26686Y-27351D01*
X26649Y-27361D01*
X26630Y-27370D01*
X26620Y-27379D01*
X26611Y-27398D01*
X26808Y-27548D02*
X26611Y-27548D01*
X26808Y-27661D02*
X26695Y-27576D01*
X26611Y-27661D02*
X26724Y-27548D01*
X25033Y-27286D02*
X24939Y-27220D01*
X25033Y-27173D02*
X24836Y-27173D01*
X24836Y-27248D01*
X24845Y-27267D01*
X24855Y-27276D01*
X24874Y-27286D01*
X24902Y-27286D01*
X24920Y-27276D01*
X24930Y-27267D01*
X24939Y-27248D01*
X24939Y-27173D01*
X25033Y-27379D02*
X25033Y-27417D01*
X25024Y-27436D01*
X25014Y-27445D01*
X24986Y-27464D01*
X24949Y-27473D01*
X24874Y-27473D01*
X24855Y-27464D01*
X24845Y-27454D01*
X24836Y-27436D01*
X24836Y-27398D01*
X24845Y-27379D01*
X24855Y-27370D01*
X24874Y-27361D01*
X24920Y-27361D01*
X24939Y-27370D01*
X24949Y-27379D01*
X24958Y-27398D01*
X24958Y-27436D01*
X24949Y-27454D01*
X24939Y-27464D01*
X24920Y-27473D01*
X24758Y-27089D02*
X24758Y-26976D01*
X24758Y-27032D02*
X24561Y-27032D01*
X24589Y-27014D01*
X24608Y-26995D01*
X24617Y-26976D01*
X24561Y-27211D02*
X24561Y-27229D01*
X24570Y-27248D01*
X24580Y-27257D01*
X24599Y-27267D01*
X24636Y-27276D01*
X24683Y-27276D01*
X24720Y-27267D01*
X24739Y-27257D01*
X24749Y-27248D01*
X24758Y-27229D01*
X24758Y-27211D01*
X24749Y-27192D01*
X24739Y-27182D01*
X24720Y-27173D01*
X24683Y-27164D01*
X24636Y-27164D01*
X24599Y-27173D01*
X24580Y-27182D01*
X24570Y-27192D01*
X24561Y-27211D01*
X24561Y-27398D02*
X24561Y-27417D01*
X24570Y-27436D01*
X24580Y-27445D01*
X24599Y-27454D01*
X24636Y-27464D01*
X24683Y-27464D01*
X24720Y-27454D01*
X24739Y-27445D01*
X24749Y-27436D01*
X24758Y-27417D01*
X24758Y-27398D01*
X24749Y-27379D01*
X24739Y-27370D01*
X24720Y-27361D01*
X24683Y-27351D01*
X24636Y-27351D01*
X24599Y-27361D01*
X24580Y-27370D01*
X24570Y-27379D01*
X24561Y-27398D01*
X24758Y-27548D02*
X24561Y-27548D01*
X24758Y-27661D02*
X24645Y-27576D01*
X24561Y-27661D02*
X24674Y-27548D01*
X26014Y-13286D02*
X26024Y-13276D01*
X26033Y-13248D01*
X26033Y-13229D01*
X26024Y-13201D01*
X26005Y-13182D01*
X25986Y-13173D01*
X25949Y-13164D01*
X25920Y-13164D01*
X25883Y-13173D01*
X25864Y-13182D01*
X25845Y-13201D01*
X25836Y-13229D01*
X25836Y-13248D01*
X25845Y-13276D01*
X25855Y-13286D01*
X25836Y-13351D02*
X25836Y-13483D01*
X26033Y-13398D01*
X25758Y-13107D02*
X25758Y-12995D01*
X25758Y-13051D02*
X25561Y-13051D01*
X25589Y-13032D01*
X25608Y-13014D01*
X25617Y-12995D01*
X25561Y-13229D02*
X25561Y-13248D01*
X25570Y-13267D01*
X25580Y-13276D01*
X25599Y-13286D01*
X25636Y-13295D01*
X25683Y-13295D01*
X25720Y-13286D01*
X25739Y-13276D01*
X25749Y-13267D01*
X25758Y-13248D01*
X25758Y-13229D01*
X25749Y-13211D01*
X25739Y-13201D01*
X25720Y-13192D01*
X25683Y-13182D01*
X25636Y-13182D01*
X25599Y-13192D01*
X25580Y-13201D01*
X25570Y-13211D01*
X25561Y-13229D01*
X25627Y-13379D02*
X25758Y-13379D01*
X25645Y-13379D02*
X25636Y-13389D01*
X25627Y-13408D01*
X25627Y-13436D01*
X25636Y-13454D01*
X25655Y-13464D01*
X25758Y-13464D01*
X25655Y-13623D02*
X25655Y-13558D01*
X25758Y-13558D02*
X25561Y-13558D01*
X25561Y-13651D01*
X26533Y-13192D02*
X26439Y-13126D01*
X26533Y-13079D02*
X26336Y-13079D01*
X26336Y-13154D01*
X26345Y-13173D01*
X26355Y-13182D01*
X26374Y-13192D01*
X26402Y-13192D01*
X26420Y-13182D01*
X26430Y-13173D01*
X26439Y-13154D01*
X26439Y-13079D01*
X26533Y-13379D02*
X26533Y-13267D01*
X26533Y-13323D02*
X26336Y-13323D01*
X26364Y-13304D01*
X26383Y-13286D01*
X26392Y-13267D01*
X26336Y-13548D02*
X26336Y-13511D01*
X26345Y-13492D01*
X26355Y-13483D01*
X26383Y-13464D01*
X26420Y-13454D01*
X26495Y-13454D01*
X26514Y-13464D01*
X26524Y-13473D01*
X26533Y-13492D01*
X26533Y-13529D01*
X26524Y-13548D01*
X26514Y-13558D01*
X26495Y-13567D01*
X26449Y-13567D01*
X26430Y-13558D01*
X26420Y-13548D01*
X26411Y-13529D01*
X26411Y-13492D01*
X26420Y-13473D01*
X26430Y-13464D01*
X26449Y-13454D01*
X26808Y-13089D02*
X26808Y-12976D01*
X26808Y-13032D02*
X26611Y-13032D01*
X26639Y-13014D01*
X26658Y-12995D01*
X26667Y-12976D01*
X26611Y-13211D02*
X26611Y-13229D01*
X26620Y-13248D01*
X26630Y-13257D01*
X26649Y-13267D01*
X26686Y-13276D01*
X26733Y-13276D01*
X26770Y-13267D01*
X26789Y-13257D01*
X26799Y-13248D01*
X26808Y-13229D01*
X26808Y-13211D01*
X26799Y-13192D01*
X26789Y-13182D01*
X26770Y-13173D01*
X26733Y-13164D01*
X26686Y-13164D01*
X26649Y-13173D01*
X26630Y-13182D01*
X26620Y-13192D01*
X26611Y-13211D01*
X26611Y-13398D02*
X26611Y-13417D01*
X26620Y-13436D01*
X26630Y-13445D01*
X26649Y-13454D01*
X26686Y-13464D01*
X26733Y-13464D01*
X26770Y-13454D01*
X26789Y-13445D01*
X26799Y-13436D01*
X26808Y-13417D01*
X26808Y-13398D01*
X26799Y-13379D01*
X26789Y-13370D01*
X26770Y-13361D01*
X26733Y-13351D01*
X26686Y-13351D01*
X26649Y-13361D01*
X26630Y-13370D01*
X26620Y-13379D01*
X26611Y-13398D01*
X26808Y-13548D02*
X26611Y-13548D01*
X26808Y-13661D02*
X26695Y-13576D01*
X26611Y-13661D02*
X26724Y-13548D01*
X25033Y-13286D02*
X24939Y-13220D01*
X25033Y-13173D02*
X24836Y-13173D01*
X24836Y-13248D01*
X24845Y-13267D01*
X24855Y-13276D01*
X24874Y-13286D01*
X24902Y-13286D01*
X24920Y-13276D01*
X24930Y-13267D01*
X24939Y-13248D01*
X24939Y-13173D01*
X24920Y-13398D02*
X24911Y-13379D01*
X24902Y-13370D01*
X24883Y-13361D01*
X24874Y-13361D01*
X24855Y-13370D01*
X24845Y-13379D01*
X24836Y-13398D01*
X24836Y-13436D01*
X24845Y-13454D01*
X24855Y-13464D01*
X24874Y-13473D01*
X24883Y-13473D01*
X24902Y-13464D01*
X24911Y-13454D01*
X24920Y-13436D01*
X24920Y-13398D01*
X24930Y-13379D01*
X24939Y-13370D01*
X24958Y-13361D01*
X24995Y-13361D01*
X25014Y-13370D01*
X25024Y-13379D01*
X25033Y-13398D01*
X25033Y-13436D01*
X25024Y-13454D01*
X25014Y-13464D01*
X24995Y-13473D01*
X24958Y-13473D01*
X24939Y-13464D01*
X24930Y-13454D01*
X24920Y-13436D01*
X24758Y-13089D02*
X24758Y-12976D01*
X24758Y-13032D02*
X24561Y-13032D01*
X24589Y-13014D01*
X24608Y-12995D01*
X24617Y-12976D01*
X24561Y-13211D02*
X24561Y-13229D01*
X24570Y-13248D01*
X24580Y-13257D01*
X24599Y-13267D01*
X24636Y-13276D01*
X24683Y-13276D01*
X24720Y-13267D01*
X24739Y-13257D01*
X24749Y-13248D01*
X24758Y-13229D01*
X24758Y-13211D01*
X24749Y-13192D01*
X24739Y-13182D01*
X24720Y-13173D01*
X24683Y-13164D01*
X24636Y-13164D01*
X24599Y-13173D01*
X24580Y-13182D01*
X24570Y-13192D01*
X24561Y-13211D01*
X24561Y-13398D02*
X24561Y-13417D01*
X24570Y-13436D01*
X24580Y-13445D01*
X24599Y-13454D01*
X24636Y-13464D01*
X24683Y-13464D01*
X24720Y-13454D01*
X24739Y-13445D01*
X24749Y-13436D01*
X24758Y-13417D01*
X24758Y-13398D01*
X24749Y-13379D01*
X24739Y-13370D01*
X24720Y-13361D01*
X24683Y-13351D01*
X24636Y-13351D01*
X24599Y-13361D01*
X24580Y-13370D01*
X24570Y-13379D01*
X24561Y-13398D01*
X24758Y-13548D02*
X24561Y-13548D01*
X24758Y-13661D02*
X24645Y-13576D01*
X24561Y-13661D02*
X24674Y-13548D01*
X26014Y-15286D02*
X26024Y-15276D01*
X26033Y-15248D01*
X26033Y-15229D01*
X26024Y-15201D01*
X26005Y-15182D01*
X25986Y-15173D01*
X25949Y-15164D01*
X25920Y-15164D01*
X25883Y-15173D01*
X25864Y-15182D01*
X25845Y-15201D01*
X25836Y-15229D01*
X25836Y-15248D01*
X25845Y-15276D01*
X25855Y-15286D01*
X25836Y-15454D02*
X25836Y-15417D01*
X25845Y-15398D01*
X25855Y-15389D01*
X25883Y-15370D01*
X25920Y-15361D01*
X25995Y-15361D01*
X26014Y-15370D01*
X26024Y-15379D01*
X26033Y-15398D01*
X26033Y-15436D01*
X26024Y-15454D01*
X26014Y-15464D01*
X25995Y-15473D01*
X25949Y-15473D01*
X25930Y-15464D01*
X25920Y-15454D01*
X25911Y-15436D01*
X25911Y-15398D01*
X25920Y-15379D01*
X25930Y-15370D01*
X25949Y-15361D01*
X25758Y-15107D02*
X25758Y-14995D01*
X25758Y-15051D02*
X25561Y-15051D01*
X25589Y-15032D01*
X25608Y-15014D01*
X25617Y-14995D01*
X25561Y-15229D02*
X25561Y-15248D01*
X25570Y-15267D01*
X25580Y-15276D01*
X25599Y-15286D01*
X25636Y-15295D01*
X25683Y-15295D01*
X25720Y-15286D01*
X25739Y-15276D01*
X25749Y-15267D01*
X25758Y-15248D01*
X25758Y-15229D01*
X25749Y-15211D01*
X25739Y-15201D01*
X25720Y-15192D01*
X25683Y-15182D01*
X25636Y-15182D01*
X25599Y-15192D01*
X25580Y-15201D01*
X25570Y-15211D01*
X25561Y-15229D01*
X25627Y-15379D02*
X25758Y-15379D01*
X25645Y-15379D02*
X25636Y-15389D01*
X25627Y-15408D01*
X25627Y-15436D01*
X25636Y-15454D01*
X25655Y-15464D01*
X25758Y-15464D01*
X25655Y-15623D02*
X25655Y-15558D01*
X25758Y-15558D02*
X25561Y-15558D01*
X25561Y-15651D01*
X26533Y-15192D02*
X26439Y-15126D01*
X26533Y-15079D02*
X26336Y-15079D01*
X26336Y-15154D01*
X26345Y-15173D01*
X26355Y-15182D01*
X26374Y-15192D01*
X26402Y-15192D01*
X26420Y-15182D01*
X26430Y-15173D01*
X26439Y-15154D01*
X26439Y-15079D01*
X26533Y-15379D02*
X26533Y-15267D01*
X26533Y-15323D02*
X26336Y-15323D01*
X26364Y-15304D01*
X26383Y-15286D01*
X26392Y-15267D01*
X26336Y-15558D02*
X26336Y-15464D01*
X26430Y-15454D01*
X26420Y-15464D01*
X26411Y-15483D01*
X26411Y-15529D01*
X26420Y-15548D01*
X26430Y-15558D01*
X26449Y-15567D01*
X26495Y-15567D01*
X26514Y-15558D01*
X26524Y-15548D01*
X26533Y-15529D01*
X26533Y-15483D01*
X26524Y-15464D01*
X26514Y-15454D01*
X26808Y-15089D02*
X26808Y-14976D01*
X26808Y-15032D02*
X26611Y-15032D01*
X26639Y-15014D01*
X26658Y-14995D01*
X26667Y-14976D01*
X26611Y-15211D02*
X26611Y-15229D01*
X26620Y-15248D01*
X26630Y-15257D01*
X26649Y-15267D01*
X26686Y-15276D01*
X26733Y-15276D01*
X26770Y-15267D01*
X26789Y-15257D01*
X26799Y-15248D01*
X26808Y-15229D01*
X26808Y-15211D01*
X26799Y-15192D01*
X26789Y-15182D01*
X26770Y-15173D01*
X26733Y-15164D01*
X26686Y-15164D01*
X26649Y-15173D01*
X26630Y-15182D01*
X26620Y-15192D01*
X26611Y-15211D01*
X26611Y-15398D02*
X26611Y-15417D01*
X26620Y-15436D01*
X26630Y-15445D01*
X26649Y-15454D01*
X26686Y-15464D01*
X26733Y-15464D01*
X26770Y-15454D01*
X26789Y-15445D01*
X26799Y-15436D01*
X26808Y-15417D01*
X26808Y-15398D01*
X26799Y-15379D01*
X26789Y-15370D01*
X26770Y-15361D01*
X26733Y-15351D01*
X26686Y-15351D01*
X26649Y-15361D01*
X26630Y-15370D01*
X26620Y-15379D01*
X26611Y-15398D01*
X26808Y-15548D02*
X26611Y-15548D01*
X26808Y-15661D02*
X26695Y-15576D01*
X26611Y-15661D02*
X26724Y-15548D01*
X25033Y-15286D02*
X24939Y-15220D01*
X25033Y-15173D02*
X24836Y-15173D01*
X24836Y-15248D01*
X24845Y-15267D01*
X24855Y-15276D01*
X24874Y-15286D01*
X24902Y-15286D01*
X24920Y-15276D01*
X24930Y-15267D01*
X24939Y-15248D01*
X24939Y-15173D01*
X24836Y-15351D02*
X24836Y-15483D01*
X25033Y-15398D01*
X24758Y-15089D02*
X24758Y-14976D01*
X24758Y-15032D02*
X24561Y-15032D01*
X24589Y-15014D01*
X24608Y-14995D01*
X24617Y-14976D01*
X24561Y-15211D02*
X24561Y-15229D01*
X24570Y-15248D01*
X24580Y-15257D01*
X24599Y-15267D01*
X24636Y-15276D01*
X24683Y-15276D01*
X24720Y-15267D01*
X24739Y-15257D01*
X24749Y-15248D01*
X24758Y-15229D01*
X24758Y-15211D01*
X24749Y-15192D01*
X24739Y-15182D01*
X24720Y-15173D01*
X24683Y-15164D01*
X24636Y-15164D01*
X24599Y-15173D01*
X24580Y-15182D01*
X24570Y-15192D01*
X24561Y-15211D01*
X24561Y-15398D02*
X24561Y-15417D01*
X24570Y-15436D01*
X24580Y-15445D01*
X24599Y-15454D01*
X24636Y-15464D01*
X24683Y-15464D01*
X24720Y-15454D01*
X24739Y-15445D01*
X24749Y-15436D01*
X24758Y-15417D01*
X24758Y-15398D01*
X24749Y-15379D01*
X24739Y-15370D01*
X24720Y-15361D01*
X24683Y-15351D01*
X24636Y-15351D01*
X24599Y-15361D01*
X24580Y-15370D01*
X24570Y-15379D01*
X24561Y-15398D01*
X24758Y-15548D02*
X24561Y-15548D01*
X24758Y-15661D02*
X24645Y-15576D01*
X24561Y-15661D02*
X24674Y-15548D01*
X26014Y-17286D02*
X26024Y-17276D01*
X26033Y-17248D01*
X26033Y-17229D01*
X26024Y-17201D01*
X26005Y-17182D01*
X25986Y-17173D01*
X25949Y-17164D01*
X25920Y-17164D01*
X25883Y-17173D01*
X25864Y-17182D01*
X25845Y-17201D01*
X25836Y-17229D01*
X25836Y-17248D01*
X25845Y-17276D01*
X25855Y-17286D01*
X25836Y-17464D02*
X25836Y-17370D01*
X25930Y-17361D01*
X25920Y-17370D01*
X25911Y-17389D01*
X25911Y-17436D01*
X25920Y-17454D01*
X25930Y-17464D01*
X25949Y-17473D01*
X25995Y-17473D01*
X26014Y-17464D01*
X26024Y-17454D01*
X26033Y-17436D01*
X26033Y-17389D01*
X26024Y-17370D01*
X26014Y-17361D01*
X25758Y-17107D02*
X25758Y-16995D01*
X25758Y-17051D02*
X25561Y-17051D01*
X25589Y-17032D01*
X25608Y-17014D01*
X25617Y-16995D01*
X25561Y-17229D02*
X25561Y-17248D01*
X25570Y-17267D01*
X25580Y-17276D01*
X25599Y-17286D01*
X25636Y-17295D01*
X25683Y-17295D01*
X25720Y-17286D01*
X25739Y-17276D01*
X25749Y-17267D01*
X25758Y-17248D01*
X25758Y-17229D01*
X25749Y-17211D01*
X25739Y-17201D01*
X25720Y-17192D01*
X25683Y-17182D01*
X25636Y-17182D01*
X25599Y-17192D01*
X25580Y-17201D01*
X25570Y-17211D01*
X25561Y-17229D01*
X25627Y-17379D02*
X25758Y-17379D01*
X25645Y-17379D02*
X25636Y-17389D01*
X25627Y-17408D01*
X25627Y-17436D01*
X25636Y-17454D01*
X25655Y-17464D01*
X25758Y-17464D01*
X25655Y-17623D02*
X25655Y-17558D01*
X25758Y-17558D02*
X25561Y-17558D01*
X25561Y-17651D01*
X25126Y-58704D02*
X25192Y-58610D01*
X25239Y-58704D02*
X25239Y-58507D01*
X25164Y-58507D01*
X25145Y-58517D01*
X25136Y-58526D01*
X25126Y-58545D01*
X25126Y-58573D01*
X25136Y-58592D01*
X25145Y-58601D01*
X25164Y-58610D01*
X25239Y-58610D01*
X25051Y-58526D02*
X25042Y-58517D01*
X25023Y-58507D01*
X24976Y-58507D01*
X24957Y-58517D01*
X24948Y-58526D01*
X24939Y-58545D01*
X24939Y-58564D01*
X24948Y-58592D01*
X25060Y-58704D01*
X24939Y-58704D01*
X24873Y-58507D02*
X24751Y-58507D01*
X24817Y-58582D01*
X24788Y-58582D01*
X24770Y-58592D01*
X24760Y-58601D01*
X24751Y-58620D01*
X24751Y-58667D01*
X24760Y-58685D01*
X24770Y-58695D01*
X24788Y-58704D01*
X24845Y-58704D01*
X24863Y-58695D01*
X24873Y-58685D01*
X25136Y-58429D02*
X25248Y-58429D01*
X25192Y-58429D02*
X25192Y-58232D01*
X25211Y-58260D01*
X25229Y-58279D01*
X25248Y-58289D01*
X25014Y-58232D02*
X24995Y-58232D01*
X24976Y-58242D01*
X24967Y-58251D01*
X24957Y-58270D01*
X24948Y-58307D01*
X24948Y-58354D01*
X24957Y-58392D01*
X24967Y-58410D01*
X24976Y-58420D01*
X24995Y-58429D01*
X25014Y-58429D01*
X25032Y-58420D01*
X25042Y-58410D01*
X25051Y-58392D01*
X25060Y-58354D01*
X25060Y-58307D01*
X25051Y-58270D01*
X25042Y-58251D01*
X25032Y-58242D01*
X25014Y-58232D01*
X24863Y-58429D02*
X24863Y-58232D01*
X24751Y-58429D02*
X24835Y-58317D01*
X24751Y-58232D02*
X24863Y-58345D01*
X29626Y-59704D02*
X29692Y-59610D01*
X29739Y-59704D02*
X29739Y-59507D01*
X29664Y-59507D01*
X29645Y-59517D01*
X29636Y-59526D01*
X29626Y-59545D01*
X29626Y-59573D01*
X29636Y-59592D01*
X29645Y-59601D01*
X29664Y-59610D01*
X29739Y-59610D01*
X29551Y-59526D02*
X29542Y-59517D01*
X29523Y-59507D01*
X29476Y-59507D01*
X29457Y-59517D01*
X29448Y-59526D01*
X29439Y-59545D01*
X29439Y-59564D01*
X29448Y-59592D01*
X29560Y-59704D01*
X29439Y-59704D01*
X29363Y-59526D02*
X29354Y-59517D01*
X29335Y-59507D01*
X29288Y-59507D01*
X29270Y-59517D01*
X29260Y-59526D01*
X29251Y-59545D01*
X29251Y-59564D01*
X29260Y-59592D01*
X29373Y-59704D01*
X29251Y-59704D01*
X29636Y-59979D02*
X29748Y-59979D01*
X29692Y-59979D02*
X29692Y-59782D01*
X29711Y-59810D01*
X29729Y-59829D01*
X29748Y-59839D01*
X29514Y-59782D02*
X29495Y-59782D01*
X29476Y-59792D01*
X29467Y-59801D01*
X29457Y-59820D01*
X29448Y-59857D01*
X29448Y-59904D01*
X29457Y-59942D01*
X29467Y-59960D01*
X29476Y-59970D01*
X29495Y-59979D01*
X29514Y-59979D01*
X29532Y-59970D01*
X29542Y-59960D01*
X29551Y-59942D01*
X29560Y-59904D01*
X29560Y-59857D01*
X29551Y-59820D01*
X29542Y-59801D01*
X29532Y-59792D01*
X29514Y-59782D01*
X29363Y-59979D02*
X29363Y-59782D01*
X29251Y-59979D02*
X29335Y-59867D01*
X29251Y-59782D02*
X29363Y-59895D01*
M02*
