G04 (created by PCBNEW (2013-07-07 BZR 4022)-stable) date 2014.08.18 14:47:36*
%MOIN*%
G04 Gerber Fmt 3.4, Leading zero omitted, Abs format*
%FSLAX34Y34*%
G01*
G70*
G90*
G04 APERTURE LIST*
%ADD10C,0.00590551*%
%ADD11C,0.1*%
%ADD12R,0.1X0.1*%
%ADD13R,0.0708661X0.0708661*%
%ADD14C,0.0708661*%
%ADD15R,0.0787402X0.0787402*%
%ADD16C,0.0787402*%
%ADD17R,0.06X0.06*%
%ADD18C,0.06*%
%ADD19C,0.07*%
%ADD20R,0.07X0.07*%
%ADD21C,0.066*%
%ADD22R,0.055X0.055*%
%ADD23C,0.055*%
%ADD24C,0.0787*%
%ADD25C,0.0984252*%
G04 APERTURE END LIST*
G54D10*
G54D11*
X28250Y-57500D03*
X26250Y-57500D03*
X28234Y-59484D03*
X26266Y-59484D03*
X23578Y-27318D03*
X23578Y-29318D03*
G54D12*
X23578Y-25318D03*
G54D11*
X23578Y-31318D03*
G54D13*
X39000Y-23000D03*
G54D14*
X39000Y-22000D03*
X39000Y-21000D03*
G54D13*
X39000Y-37500D03*
G54D14*
X39000Y-36500D03*
X39000Y-35500D03*
G54D13*
X39000Y-52000D03*
G54D14*
X39000Y-51000D03*
X39000Y-50000D03*
G54D13*
X39000Y-59250D03*
G54D14*
X39000Y-58250D03*
X39000Y-57250D03*
G54D13*
X38980Y-15755D03*
G54D14*
X38980Y-14755D03*
X38980Y-13755D03*
G54D13*
X39000Y-44750D03*
G54D14*
X39000Y-43750D03*
X39000Y-42750D03*
G54D13*
X39000Y-66500D03*
G54D14*
X39000Y-65500D03*
X39000Y-64500D03*
G54D13*
X39000Y-30250D03*
G54D14*
X39000Y-29250D03*
X39000Y-28250D03*
G54D15*
X31437Y-71187D03*
G54D16*
X31437Y-69218D03*
X31437Y-65281D03*
X31437Y-63312D03*
X23562Y-63312D03*
X23562Y-65281D03*
X23562Y-67250D03*
X23562Y-69218D03*
X23562Y-71187D03*
G54D17*
X23818Y-45421D03*
G54D18*
X22818Y-45421D03*
X23818Y-44421D03*
X22818Y-44421D03*
X23818Y-43421D03*
X22818Y-43421D03*
X26328Y-33568D03*
X27328Y-33568D03*
G54D19*
X24250Y-54000D03*
G54D20*
X24250Y-53000D03*
G54D19*
X24250Y-52000D03*
G54D21*
X33750Y-48000D03*
X33750Y-49000D03*
X33750Y-55250D03*
X33750Y-56250D03*
X33750Y-62500D03*
X33750Y-63500D03*
X33750Y-40750D03*
X33750Y-41750D03*
X33750Y-33500D03*
X33750Y-34500D03*
X33750Y-26250D03*
X33750Y-27250D03*
X33750Y-19000D03*
X33750Y-20000D03*
X32730Y-12755D03*
X32730Y-13755D03*
G54D22*
X33750Y-35500D03*
G54D23*
X33750Y-36500D03*
X33750Y-37500D03*
X36750Y-37500D03*
X36750Y-36500D03*
X36750Y-35500D03*
G54D22*
X33750Y-64500D03*
G54D23*
X33750Y-65500D03*
X33750Y-66500D03*
X36750Y-66500D03*
X36750Y-65500D03*
X36750Y-64500D03*
G54D22*
X33750Y-57250D03*
G54D23*
X33750Y-58250D03*
X33750Y-59250D03*
X36750Y-59250D03*
X36750Y-58250D03*
X36750Y-57250D03*
G54D22*
X33750Y-50000D03*
G54D23*
X33750Y-51000D03*
X33750Y-52000D03*
X36750Y-52000D03*
X36750Y-51000D03*
X36750Y-50000D03*
G54D22*
X33750Y-42750D03*
G54D23*
X33750Y-43750D03*
X33750Y-44750D03*
X36750Y-44750D03*
X36750Y-43750D03*
X36750Y-42750D03*
G54D22*
X33750Y-28250D03*
G54D23*
X33750Y-29250D03*
X33750Y-30250D03*
X36750Y-30250D03*
X36750Y-29250D03*
X36750Y-28250D03*
G54D22*
X33750Y-21000D03*
G54D23*
X33750Y-22000D03*
X33750Y-23000D03*
X36750Y-23000D03*
X36750Y-22000D03*
X36750Y-21000D03*
G54D22*
X33730Y-13755D03*
G54D23*
X33730Y-14755D03*
X33730Y-15755D03*
X36730Y-15755D03*
X36730Y-14755D03*
X36730Y-13755D03*
G54D12*
X23578Y-33318D03*
G54D11*
X23578Y-35318D03*
X23578Y-37318D03*
G54D12*
X23578Y-17318D03*
G54D11*
X23578Y-15318D03*
X23578Y-13318D03*
G54D12*
X23578Y-23318D03*
G54D11*
X23578Y-21318D03*
X23578Y-19318D03*
G54D12*
X53500Y-23250D03*
G54D11*
X53500Y-21250D03*
G54D12*
X53500Y-66750D03*
G54D11*
X53500Y-64750D03*
G54D12*
X53500Y-37750D03*
G54D11*
X53500Y-35750D03*
G54D12*
X53500Y-52250D03*
G54D11*
X53500Y-50250D03*
G54D12*
X53500Y-30500D03*
G54D11*
X53500Y-28500D03*
G54D12*
X53500Y-45000D03*
G54D11*
X53500Y-43000D03*
G54D12*
X53500Y-72500D03*
G54D11*
X53500Y-70500D03*
G54D12*
X53500Y-16000D03*
G54D11*
X53500Y-14000D03*
G54D12*
X53500Y-59500D03*
G54D11*
X53500Y-57500D03*
G54D22*
X24000Y-49500D03*
G54D23*
X25000Y-49500D03*
G54D22*
X27078Y-36568D03*
G54D23*
X26078Y-36568D03*
G54D24*
X39730Y-18255D03*
X43730Y-18255D03*
X39750Y-69000D03*
X43750Y-69000D03*
X39750Y-40000D03*
X43750Y-40000D03*
X39750Y-25500D03*
X43750Y-25500D03*
X39750Y-54500D03*
X43750Y-54500D03*
X39750Y-47250D03*
X43750Y-47250D03*
X39750Y-61750D03*
X43750Y-61750D03*
X39750Y-32750D03*
X43750Y-32750D03*
X49230Y-18255D03*
X45230Y-18255D03*
X49250Y-25500D03*
X45250Y-25500D03*
X49250Y-32750D03*
X45250Y-32750D03*
X49250Y-54500D03*
X45250Y-54500D03*
X49250Y-47250D03*
X45250Y-47250D03*
X49250Y-40000D03*
X45250Y-40000D03*
X49250Y-61750D03*
X45250Y-61750D03*
X49250Y-69000D03*
X45250Y-69000D03*
G54D23*
X26750Y-39500D03*
X23750Y-39500D03*
G54D14*
X50750Y-68750D03*
X53750Y-68750D03*
X51000Y-40000D03*
X54000Y-40000D03*
X51000Y-61750D03*
X54000Y-61750D03*
X51000Y-47250D03*
X54000Y-47250D03*
X51000Y-54500D03*
X54000Y-54500D03*
X50980Y-18255D03*
X53980Y-18255D03*
X51000Y-25500D03*
X54000Y-25500D03*
X51000Y-32750D03*
X54000Y-32750D03*
G54D25*
X45250Y-20084D03*
X45250Y-24415D03*
X45250Y-27334D03*
X45250Y-31665D03*
X45250Y-49084D03*
X45250Y-53415D03*
X45250Y-41834D03*
X45250Y-46165D03*
X45250Y-34584D03*
X45250Y-38915D03*
X45250Y-56334D03*
X45250Y-60665D03*
X45250Y-63584D03*
X45250Y-67915D03*
G54D23*
X39750Y-41750D03*
X36750Y-41750D03*
X39750Y-27250D03*
X36750Y-27250D03*
X39750Y-49000D03*
X36750Y-49000D03*
X39750Y-63500D03*
X36750Y-63500D03*
X39750Y-20000D03*
X36750Y-20000D03*
X39750Y-34500D03*
X36750Y-34500D03*
X39750Y-56250D03*
X36750Y-56250D03*
X39730Y-12755D03*
X36730Y-12755D03*
X37750Y-28750D03*
X37750Y-31750D03*
X37750Y-43250D03*
X37750Y-46250D03*
X37750Y-50500D03*
X37750Y-53500D03*
X37750Y-21500D03*
X37750Y-24500D03*
X37730Y-14255D03*
X37730Y-17255D03*
X37750Y-65000D03*
X37750Y-68000D03*
X37750Y-36000D03*
X37750Y-39000D03*
X37750Y-57750D03*
X37750Y-60750D03*
G54D25*
X45230Y-12840D03*
X45230Y-17171D03*
G54D20*
X29781Y-54842D03*
G54D19*
X29781Y-52842D03*
X29750Y-48500D03*
X27750Y-48500D03*
M02*
